<svg width="20" height="21" viewBox="0 0 20 21" fill="none" xmlns="http://www.w3.org/2000/svg">
<path d="M16.25 3.24316H15.7908C15.5867 1.83316 14.3817 0.743164 12.9167 0.743164H2.91667C1.30833 0.743164 0 2.0515 0 3.65983V5.3265C0 6.93483 1.30833 8.24316 2.91667 8.24316H12.9167C14.3817 8.24316 15.5867 7.15316 15.7908 5.74316H16.25C16.9392 5.74316 17.5 6.304 17.5 6.99316V8.65983C17.5 9.349 16.9392 9.90983 16.25 9.90983H10.4167C8.34917 9.90983 6.66667 11.5923 6.66667 13.6598V14.0848C6.16417 14.4648 5.83333 15.0632 5.83333 15.7432V18.6598C5.83333 19.8107 6.76583 20.7432 7.91667 20.7432C9.0675 20.7432 10 19.8107 10 18.6598V15.7432C10 15.0632 9.66917 14.4657 9.16583 14.0848V13.6598C9.16667 12.9707 9.7275 12.4098 10.4167 12.4098H16.25C18.3175 12.4098 20 10.7273 20 8.65983V6.99316C20 4.92566 18.3175 3.24316 16.25 3.24316ZM13.3333 5.3265C13.3333 5.55566 13.1467 5.74316 12.9167 5.74316H2.91667C2.68667 5.74316 2.5 5.55566 2.5 5.3265V3.65983C2.5 3.43066 2.68667 3.24316 2.91667 3.24316H12.9167C13.1467 3.24316 13.3333 3.43066 13.3333 3.65983V5.3265Z" fill="#20315F"/>
</svg>
