<svg width="20" height="20" viewBox="0 0 20 20" fill="none" xmlns="http://www.w3.org/2000/svg">
<path d="M17.0833 10.8333H16.6667V9.58333C16.6667 8.8925 16.1067 8.33333 15.4167 8.33333C14.7267 8.33333 14.1667 8.8925 14.1667 9.58333V10.8333H11.25V3.95833C11.25 3.15417 11.9042 2.5 12.7083 2.5C13.4342 2.5 14.1667 2.88667 14.1667 3.75C14.1667 4.44083 14.7267 5 15.4167 5C16.1067 5 16.6667 4.44083 16.6667 3.75C16.6667 1.6125 14.965 0 12.7083 0C10.5258 0 8.75 1.77583 8.75 3.95833V10.8333H5.83333V9.58333C5.83333 8.8925 5.27333 8.33333 4.58333 8.33333C3.89333 8.33333 3.33333 8.8925 3.33333 9.58333V10.8333H2.91667C1.30833 10.8333 0 12.1417 0 13.75C0 17.1967 2.80333 20 6.25 20H13.75C17.1967 20 20 17.1967 20 13.75C20 12.1417 18.6917 10.8333 17.0833 10.8333ZM13.75 17.5H6.25C4.1825 17.5 2.5 15.8175 2.5 13.75C2.5 13.52 2.6875 13.3333 2.91667 13.3333H17.0833C17.3125 13.3333 17.5 13.52 17.5 13.75C17.5 15.8175 15.8175 17.5 13.75 17.5Z" fill="#20315F"/>
</svg>
