<svg width="20" height="20" viewBox="0 0 20 20" fill="none" xmlns="http://www.w3.org/2000/svg">
<path d="M18.75 0H14.5833C12.975 0 11.6667 1.30833 11.6667 2.91667V5.83333H2.5V1.25C2.5 0.56 1.94083 0 1.25 0C0.559167 0 0 0.56 0 1.25V18.75C0 19.44 0.559167 20 1.25 20C1.94083 20 2.5 19.44 2.5 18.75V18.3333H17.5V18.75C17.5 19.44 18.0592 20 18.75 20C19.4408 20 20 19.44 20 18.75V1.25C20 0.56 19.4408 0 18.75 0ZM14.1667 2.91667C14.1667 2.6875 14.3533 2.5 14.5833 2.5H17.5V5.83333H14.1667V2.91667ZM2.5 12.9167C2.5 12.6875 2.68667 12.5 2.91667 12.5H5.41667C5.64667 12.5 5.83333 12.6875 5.83333 12.9167V15.8333H2.5V12.9167ZM11.6667 15.8333H8.33333V12.9167C8.33333 12.6875 8.52 12.5 8.75 12.5H11.25C11.48 12.5 11.6667 12.6875 11.6667 12.9167V15.8333ZM14.1667 15.8333V12.9167C14.1667 11.3083 12.8583 10 11.25 10H8.75C8.13083 10 7.55583 10.1942 7.08333 10.525C6.61083 10.1942 6.03583 10 5.41667 10H2.91667C2.775 10 2.63583 10.01 2.5 10.03V8.33333H17.5V15.8333H14.1667Z" fill="#20315F"/>
</svg>
