<svg width="31" height="33" viewBox="0 0 31 33" fill="none" xmlns="http://www.w3.org/2000/svg">
<path d="M28.9415 28.8751H27.0121V8.93783C27.0121 5.5265 24.4151 2.75042 21.2238 2.75042H19.6056C19.2931 2.2513 18.9098 1.79618 18.4621 1.40431C17.1167 0.224577 15.366 -0.245667 13.6565 0.122828L9.02847 1.11281C6.0327 1.75356 3.85758 4.58739 3.85758 7.85297V28.8751H1.92944C0.863101 28.8751 0 29.799 0 30.9375C0 32.076 0.863101 33 1.92944 33H28.9415C30.0079 33 30.871 32.076 30.871 30.9375C30.871 29.799 30.0079 28.8751 28.9415 28.8751ZM23.1532 8.93783V28.8751H20.5806V6.87536H21.2238C22.2876 6.87536 23.1532 7.80072 23.1532 8.93783ZM7.71774 7.85297C7.71774 6.54674 8.58727 5.41376 9.7861 5.15663L14.4142 4.16665C14.9853 4.04702 15.568 4.20102 16.0169 4.59564C16.4658 4.98751 16.7231 5.56913 16.7231 6.18924V28.8751H7.71774V7.85297ZM15.4355 17.1877C15.4355 18.3262 14.5711 19.2502 13.506 19.2502C12.441 19.2502 11.5766 18.3262 11.5766 17.1877C11.5766 16.0492 12.441 15.1252 13.506 15.1252C14.5711 15.1252 15.4355 16.0492 15.4355 17.1877Z" fill="#20315F"/>
</svg>
