<svg width="20" height="20" viewBox="0 0 20 20" fill="none" xmlns="http://www.w3.org/2000/svg">
<g clip-path="url(#clip0_2141_3985)">
<path d="M18.3333 6.70884V5.41634C18.3333 2.88884 16.2775 0.833008 13.75 0.833008H6.25C3.7225 0.833008 1.66667 2.88884 1.66667 5.41634V6.70884C0.716667 6.90217 0 7.74384 0 8.74967V12.9163C0 14.3363 0.649167 15.608 1.66667 16.4488V17.9163C1.66667 18.6072 2.22583 19.1663 2.91667 19.1663C3.6075 19.1663 4.16667 18.6072 4.16667 17.9163V17.4788C4.30417 17.4913 4.4425 17.4997 4.58333 17.4997H15.4167C15.5575 17.4997 15.6958 17.4913 15.8333 17.4788V17.9163C15.8333 18.6072 16.3925 19.1663 17.0833 19.1663C17.7742 19.1663 18.3333 18.6072 18.3333 17.9163V16.4488C19.3508 15.6072 20 14.3363 20 12.9163V8.74967C20 7.74384 19.2833 6.90217 18.3333 6.70884ZM4.16667 5.41634C4.16667 4.26801 5.10167 3.33301 6.25 3.33301H13.75C14.8983 3.33301 15.8333 4.26801 15.8333 5.41634V10.833H4.16667V5.41634ZM15.4167 14.9997H4.58333C3.55583 14.9997 2.7 14.2522 2.53083 13.2722C2.64083 13.3038 2.79667 13.333 2.91667 13.333H17.0833C17.2033 13.333 17.3592 13.3038 17.4692 13.2722C17.3 14.2522 16.4442 14.9997 15.4167 14.9997Z" fill="#20315F"/>
</g>
<defs>
<clipPath id="clip0_2141_3985">
<rect width="20" height="20" fill="white"/>
</clipPath>
</defs>
</svg>
