<svg width="19" height="19" viewBox="0 0 19 19" fill="none" xmlns="http://www.w3.org/2000/svg">
<path d="M9.35965 18.7187C14.5288 18.7188 18.7191 14.5284 18.7191 9.35929C18.7191 4.19018 14.5288 -0.000350952 9.35965 -0.000350952C4.19055 -0.000350952 1.52588e-05 4.19018 1.52588e-05 9.35929C0.00584221 14.526 4.19278 18.7129 9.35965 18.7187ZM9.35965 0.935715C14.0119 0.935715 17.7832 4.70706 17.7832 9.35929C17.7832 14.0115 14.0119 17.7829 9.35965 17.7829C4.70743 17.7829 0.936081 14.0115 0.936081 9.35929C0.941395 4.70929 4.70965 0.941029 9.35965 0.935715Z" fill="#76C092"/>
<path d="M10.4554 12.9873C10.6501 13.1575 10.9457 13.1376 11.1159 12.9431C11.2859 12.7484 11.266 12.4528 11.0715 12.2826L7.73029 9.35925L11.0717 6.43571C11.2663 6.26553 11.286 5.96991 11.116 5.77539C10.9459 5.58071 10.6502 5.56083 10.4555 5.73101L6.7118 9.0069C6.61017 9.09567 6.5519 9.2242 6.5519 9.35925C6.5519 9.4943 6.61017 9.62266 6.7118 9.7116L10.4554 12.9873Z" fill="#76C092"/>
</svg>
