<svg width="25" height="20" viewBox="0 0 25 20" fill="none" xmlns="http://www.w3.org/2000/svg">
<path d="M19.5303 14.7623C19.756 14.7623 19.9724 14.6691 20.132 14.5031C20.2916 14.3371 20.3812 14.112 20.3812 13.8772C20.3812 13.6425 20.2916 13.4174 20.132 13.2514C19.9724 13.0854 19.756 12.9922 19.5303 12.9922H19.5124C19.2878 12.9969 19.0741 13.0932 18.9172 13.2604C18.7603 13.4276 18.6729 13.6522 18.6738 13.8858C18.6744 14.002 18.697 14.1169 18.7404 14.2239C18.7838 14.3309 18.8471 14.4279 18.9267 14.5094C19.0063 14.5909 19.1006 14.6552 19.2042 14.6986C19.3078 14.742 19.4186 14.7636 19.5303 14.7623Z" fill="#20315F"/>
<path d="M25 19.4259C25 19.3165 25 19.2072 25 19.0985C24.9959 18.5938 24.6446 18.2263 24.1463 18.2049C24.1023 18.2049 24.0583 18.2049 24.0143 18.2049V10.9228L23.9937 11.0086C23.9937 10.2222 23.9937 9.35645 23.9937 8.79239C23.9937 8.11395 23.6631 7.77007 23.0114 7.77007C21.4562 7.77007 19.9007 7.77007 18.345 7.77007V7.5749V4.41859C18.4385 4.43935 18.5302 4.46804 18.6192 4.50438C19.2077 4.75137 19.8653 4.75137 20.4538 4.50438C20.6343 4.42406 20.8286 4.38265 21.025 4.38265C21.2213 4.38265 21.4156 4.42406 21.5962 4.50438C21.8088 4.59488 22.0325 4.65407 22.2608 4.68024C22.2567 5.15351 22.2608 5.63107 22.2608 6.11792C22.2643 6.68127 22.6107 7.08019 23.1042 7.08805H23.1194C23.3363 7.09052 23.5455 7.00396 23.7016 6.84713C23.7923 6.74895 23.8634 6.63296 23.9106 6.50592C23.9578 6.37888 23.9802 6.24334 23.9765 6.1072V5.82124C23.9765 5.36799 23.982 4.89901 23.9717 4.43575C23.9717 4.32208 23.9765 4.31278 24.0494 4.26059C24.9429 3.61718 25.255 2.34607 24.769 1.31088C24.3765 0.473728 23.6693 0.00617795 22.8176 0.0240506C22.3769 -0.0299059 21.9302 0.0340734 21.5199 0.209927C21.3643 0.280978 21.1964 0.318081 21.0265 0.318942C20.8566 0.319803 20.6884 0.284403 20.5321 0.214931C20.2176 0.0776106 19.88 0.00688248 19.5389 0.00688248C19.1978 0.00688248 18.8602 0.0776106 18.5457 0.214931C18.3854 0.286912 18.2126 0.324043 18.0381 0.324043C17.8635 0.324043 17.6907 0.286912 17.5304 0.214931C17.2197 0.079847 16.8863 0.0102868 16.5496 0.0102868C16.2128 0.0102868 15.8794 0.079847 15.5687 0.214931C15.4085 0.286893 15.2359 0.324016 15.0614 0.324016C14.887 0.324016 14.7143 0.286893 14.5542 0.214931C14.2439 0.0785871 13.9106 0.00792116 13.5738 0.00706192C13.237 0.00620268 12.9034 0.0751673 12.5925 0.209927C12.4282 0.283514 12.2513 0.321469 12.0725 0.321469C11.8936 0.321469 11.7167 0.283514 11.5525 0.209927C10.9321 -0.0558131 10.2359 -0.0558131 9.6155 0.209927C9.45057 0.28359 9.27285 0.32122 9.09336 0.320482C8.91387 0.319745 8.73645 0.280654 8.57209 0.205637C8.26142 0.0699097 7.92784 0 7.59088 0C7.25392 0 6.92034 0.0699097 6.60967 0.205637C6.44967 0.277788 6.27714 0.315016 6.10275 0.315016C5.92836 0.315016 5.75582 0.277788 5.59582 0.205637C5.03526 -0.0346472 4.41115 -0.061483 3.83343 0.129857C3.51971 0.230237 3.18401 0.228741 2.87113 0.125568C1.80297 -0.207579 0.762995 0.275698 0.281156 1.32733C0.223171 1.45976 0.172005 1.59531 0.127874 1.73339C0.109316 1.78773 0.0907571 1.84421 0.0708236 1.89854L0.0488281 1.95931V2.71711L0.061888 2.76501C0.261222 3.48706 0.584281 3.98893 1.07368 4.33423C1.07368 4.3471 1.07368 4.36211 1.07368 4.37927C1.07781 7.03634 1.07987 9.69389 1.07987 12.3519V18.1991C0.74856 18.2034 0.317586 18.2585 0.0825087 18.7847L0.0508902 18.8561V20H25V19.4259ZM8.83328 9.37933V12.9925H2.81201V9.37933H8.83328ZM10.5799 4.68811L10.6555 4.67738C10.939 4.64422 11.2192 4.58489 11.4927 4.50009C11.9209 4.3521 12.2728 4.35282 12.6344 4.50009C13.2308 4.75027 13.8973 4.75027 14.4937 4.50009C14.671 4.42242 14.8615 4.38241 15.0539 4.38241C15.2463 4.38241 15.4368 4.42242 15.6141 4.50009C15.9279 4.63275 16.2645 4.69746 16.6032 4.69025V7.57276H10.5799V4.68811ZM16.1069 2.79789C15.4318 2.51226 14.676 2.51226 14.0009 2.79789C13.8626 2.85839 13.7141 2.88956 13.564 2.88956C13.414 2.88956 13.2655 2.85839 13.1272 2.79789C12.4521 2.51226 11.6963 2.51226 11.0211 2.79789C10.8828 2.85824 10.7343 2.88931 10.5843 2.88931C10.4343 2.88931 10.2858 2.85824 10.1475 2.79789C9.46407 2.50922 8.69906 2.51076 8.0167 2.80218C7.88237 2.86111 7.73805 2.89147 7.59226 2.89147C7.44646 2.89147 7.30214 2.86111 7.16781 2.80218C6.48477 2.5129 5.72004 2.5129 5.037 2.80218C4.78143 2.91052 4.49689 2.9194 4.23553 2.8272C3.64008 2.62986 2.99947 2.63637 2.40785 2.84579C2.28792 2.8962 2.15385 2.8962 2.03392 2.84579C1.91664 2.7719 1.83123 2.65388 1.79541 2.51622C1.75544 2.3765 1.76721 2.22628 1.8284 2.09514C1.85268 2.0343 1.8886 1.97922 1.93398 1.93326C1.97935 1.8873 2.03323 1.8514 2.09235 1.82776C2.17221 1.80494 2.2565 1.80494 2.33636 1.82776C2.98015 2.0207 3.66198 2.03008 4.31046 1.85493C4.52669 1.80259 4.75247 1.81173 4.96414 1.88138C5.77385 2.17735 6.51688 2.17306 7.23723 1.8678C7.35044 1.81703 7.47241 1.79084 7.59569 1.79084C7.71897 1.79084 7.84095 1.81703 7.95415 1.8678C8.31166 2.02472 8.69578 2.10557 9.08383 2.10557C9.47187 2.10557 9.85599 2.02472 10.2135 1.8678C10.3311 1.81612 10.4575 1.78985 10.5851 1.79059C10.7127 1.79132 10.8389 1.81905 10.9558 1.87209C11.3094 2.0271 11.6891 2.10696 12.0728 2.10696C12.4565 2.10696 12.8362 2.0271 13.1898 1.87209C13.3072 1.81991 13.4336 1.79302 13.5613 1.79302C13.689 1.79302 13.8154 1.81991 13.9328 1.87209C14.2865 2.02708 14.6663 2.10693 15.0501 2.10693C15.4339 2.10693 15.8138 2.02708 16.1674 1.87209C16.2886 1.81796 16.4191 1.79005 16.551 1.79005C16.6828 1.79005 16.8133 1.81796 16.9345 1.87209C17.2842 2.02514 17.6597 2.10398 18.0391 2.10398C18.4185 2.10398 18.794 2.02514 19.1437 1.87209C19.265 1.81814 19.3956 1.79033 19.5276 1.79033C19.6595 1.79033 19.7901 1.81814 19.9115 1.87209C20.26 2.02575 20.6346 2.10536 21.0131 2.10622C21.3917 2.10707 21.7666 2.02917 22.1158 1.87709C22.2574 1.83992 22.852 1.93643 23.1647 2.18093C23.239 2.23955 23.2857 2.2996 23.2864 2.33821C23.2871 2.37681 23.2397 2.43686 23.1634 2.49549C22.8293 2.75214 22.201 2.83721 22.0636 2.79146C21.3962 2.51124 20.6503 2.51124 19.9829 2.79146C19.8407 2.85357 19.688 2.88556 19.5338 2.88556C19.3795 2.88556 19.2268 2.85357 19.0846 2.79146C18.4087 2.50685 17.6526 2.50839 16.9778 2.79575C16.84 2.85604 16.6921 2.88728 16.5426 2.88764C16.3931 2.88801 16.245 2.85751 16.1069 2.79789ZM2.79208 4.58087C3.15522 4.45172 3.54933 4.45172 3.91248 4.58087C4.43417 4.7512 4.99649 4.72821 5.50371 4.51582C5.69214 4.43232 5.89484 4.38928 6.09965 4.38928C6.30447 4.38928 6.50717 4.43232 6.69559 4.51582C7.25098 4.7453 7.85517 4.74888 8.49098 4.52654C8.60027 4.48865 8.71574 4.45505 8.83466 4.42574V7.56418H2.79827C2.79827 6.57904 2.79827 5.57602 2.79414 4.58588L2.79208 4.58087ZM8.83328 14.8119V18.1813H2.81201V14.8119H8.83328ZM16.6004 9.37862V12.9889H10.5799V9.37862H16.6004ZM16.6004 14.8119V18.187H10.5757V14.8148L16.6004 14.8119ZM22.2554 9.57093V18.1899H18.3457V9.57379L22.2554 9.57093Z" fill="#20315F"/>
</svg>
