<svg width="17" height="20" viewBox="0 0 17 20" fill="none" xmlns="http://www.w3.org/2000/svg">
<path d="M7.89063 9.744L7.29312 9.12232C7.06341 8.88353 6.74829 8.7457 6.41701 8.73914C6.08573 8.73258 5.7654 8.85781 5.52642 9.08732C5.40805 9.20107 5.31326 9.33703 5.24744 9.48742C5.18162 9.63782 5.14607 9.7997 5.14282 9.96384C5.13957 10.128 5.16868 10.2911 5.2285 10.444C5.28831 10.5969 5.37765 10.7365 5.49142 10.8549L6.45727 11.8599C6.6371 12.0503 6.85311 12.2029 7.09265 12.3088C7.33219 12.4147 7.59044 12.4717 7.8523 12.4766H7.88313C8.40225 12.4751 8.89987 12.2691 9.26816 11.9032L12.5691 8.60147C12.8034 8.36706 12.9351 8.04917 12.9351 7.71771C12.9351 7.38624 12.8034 7.06835 12.5691 6.83394C12.453 6.71778 12.3151 6.62563 12.1634 6.56276C12.0117 6.49989 11.8491 6.46753 11.6849 6.46753C11.5207 6.46753 11.358 6.49989 11.2063 6.56276C11.0546 6.62563 10.9168 6.71778 10.8007 6.83394L7.89063 9.744Z" fill="#20315F"/>
<path d="M8.59099 20C8.41616 20 8.24327 19.9634 8.08347 19.8925C7.75763 19.75 0.181643 16.3074 0.181643 9.99979V6.03887C0.180605 5.07659 0.482901 4.13846 1.04557 3.35782C1.60823 2.57718 2.40264 1.99375 3.31588 1.69045L8.19514 0.0637479C8.45219 -0.0212493 8.72978 -0.0212493 8.98683 0.0637479L13.8661 1.69045C14.7793 1.99386 15.5736 2.57732 16.1362 3.35793C16.6989 4.13855 17.0012 5.07662 17.0003 6.03887V9.99979C17.0003 17.1816 9.3135 19.8267 8.98683 19.9358C8.85923 19.9785 8.72554 20.0002 8.59099 20ZM8.59099 2.56713L4.10672 4.06216C3.69177 4.20037 3.33084 4.46566 3.07507 4.82045C2.8193 5.17523 2.68168 5.60151 2.6817 6.03887V9.99979C2.6817 13.9457 7.19929 16.6266 8.65515 17.3874C10.1193 16.7766 14.5003 14.5682 14.5003 9.99979V6.03887C14.5003 5.60151 14.3627 5.17523 14.1069 4.82045C13.8511 4.46566 13.4902 4.20037 13.0752 4.06216L8.59099 2.56713Z" fill="#20315F"/>
</svg>
