<svg width="20" height="20" viewBox="0 0 20 20" fill="none" xmlns="http://www.w3.org/2000/svg">
<path d="M18.1363 4.84202L12.6565 0.85619C11.9232 0.325058 11.0471 0.0267415 10.1421 0H10.1221H10.1063H10.0854C10.0262 0 9.96787 0 9.90951 0H9.8795H9.86366H9.85032C8.94426 0.0260751 8.06713 0.32475 7.33344 0.857024L1.85449 4.84202C1.27821 5.26277 0.8092 5.81341 0.485473 6.44927C0.161746 7.08514 -0.00758459 7.78835 -0.00878906 8.50188C-0.00702932 9.11866 0.238768 9.70968 0.674904 10.1458C1.11104 10.582 1.70206 10.8278 2.31885 10.8295H8.74486V18.7495C8.74486 19.0811 8.87661 19.3992 9.11113 19.6337C9.34564 19.8682 9.66372 20 9.99538 20C10.327 20 10.6451 19.8682 10.8796 19.6337C11.1141 19.3992 11.2459 19.0811 11.2459 18.7495V10.8295H17.6719C18.2887 10.8278 18.8797 10.582 19.3159 10.1458C19.752 9.70968 19.9978 9.11866 19.9995 8.50188C19.9983 7.78835 19.829 7.08514 19.5053 6.44927C19.1816 5.81341 18.7125 5.26277 18.1363 4.84202ZM12.1946 8.32847H7.79613V8.19341C7.79577 7.81285 7.90803 7.44069 8.11876 7.1238C8.13627 7.09712 8.15211 7.07128 8.16795 7.0446L9.99538 3.79408L11.8228 7.04544C11.8386 7.07211 11.8545 7.09796 11.872 7.12463C12.0827 7.44152 12.195 7.81368 12.1946 8.19425V8.32847ZM3.32593 6.86453L6.83239 4.31346L6.00788 5.78074C5.54122 6.49881 5.29329 7.33703 5.29425 8.19341V8.32847H2.49976C2.52519 8.03967 2.61206 7.75965 2.75455 7.50717C2.89704 7.25468 3.09185 7.03558 3.32593 6.86453ZM14.6957 8.32847V8.19341C14.6966 7.33703 14.4487 6.49881 13.982 5.78074L13.1567 4.31346L16.6648 6.86453C16.8989 7.03558 17.0937 7.25468 17.2362 7.50717C17.3787 7.75965 17.4656 8.03967 17.491 8.32847H14.6957Z" fill="#20315F"/>
<path d="M3.81864 14.9978H2.49225V12.9136C2.49225 12.5819 2.3605 12.2639 2.12598 12.0294C1.89147 11.7948 1.57339 11.6631 1.24173 11.6631C0.910073 11.6631 0.591998 11.7948 0.35748 12.0294C0.122962 12.2639 -0.00878906 12.5819 -0.00878906 12.9136L-0.00878906 18.7494C-0.00878906 19.081 0.122962 19.3991 0.35748 19.6336C0.591998 19.8681 0.910073 19.9999 1.24173 19.9999C1.57339 19.9999 1.89147 19.8681 2.12598 19.6336C2.3605 19.3991 2.49225 19.081 2.49225 18.7494V17.4989H3.81864C3.909 17.4991 3.9956 17.5351 4.0595 17.599C4.1234 17.6629 4.15939 17.7495 4.15961 17.8398V18.7494C4.15961 19.081 4.29136 19.3991 4.52588 19.6336C4.7604 19.8681 5.07848 19.9999 5.41014 19.9999C5.74179 19.9999 6.05987 19.8681 6.29439 19.6336C6.52891 19.3991 6.66066 19.081 6.66066 18.7494V17.8398C6.65977 17.0863 6.36006 16.364 5.82727 15.8312C5.29448 15.2984 4.57212 14.9987 3.81864 14.9978Z" fill="#20315F"/>
<path d="M18.749 11.6631C18.4173 11.6631 18.0993 11.7948 17.8648 12.0294C17.6302 12.2639 17.4985 12.5819 17.4985 12.9136V14.9978H16.1721C15.4186 14.9987 14.6963 15.2984 14.1635 15.8312C13.6307 16.364 13.331 17.0863 13.3301 17.8398V18.7494C13.3301 19.081 13.4618 19.3991 13.6963 19.6336C13.9309 19.8681 14.2489 19.9999 14.5806 19.9999C14.9123 19.9999 15.2303 19.8681 15.4649 19.6336C15.6994 19.3991 15.8311 19.081 15.8311 18.7494V17.8398C15.8313 17.7495 15.8673 17.6629 15.9312 17.599C15.9951 17.5351 16.0817 17.4991 16.1721 17.4989H17.4985V18.7494C17.4985 19.081 17.6302 19.3991 17.8648 19.6336C18.0993 19.8681 18.4173 19.9999 18.749 19.9999C19.0807 19.9999 19.3987 19.8681 19.6333 19.6336C19.8678 19.3991 19.9995 19.081 19.9995 18.7494V12.9136C19.9995 12.5819 19.8678 12.2639 19.6333 12.0294C19.3987 11.7948 19.0807 11.6631 18.749 11.6631Z" fill="#20315F"/>
</svg>
