<svg width="33" height="33" viewBox="0 0 33 33" fill="none" xmlns="http://www.w3.org/2000/svg">
<path d="M33 2.0625C33 3.20237 32.076 4.125 30.9375 4.125H25.4375C25.0594 4.125 24.75 4.433 24.75 4.8125V8.9375C24.75 10.0774 23.826 11 22.6875 11H18.5625C18.1844 11 17.875 11.308 17.875 11.6875V15.8125C17.875 16.9524 16.9524 17.875 15.8125 17.875H11.6875C11.308 17.875 11 18.183 11 18.5625V22.6875C11 23.8274 10.0774 24.75 8.9375 24.75H4.8125C4.433 24.75 4.125 25.058 4.125 25.4375V30.9375C4.125 32.0774 3.20237 33 2.0625 33C0.922625 33 0 32.0774 0 30.9375V25.4375C0 22.7838 2.15875 20.625 4.8125 20.625H6.875V18.5625C6.875 15.9088 9.03375 13.75 11.6875 13.75H13.75V11.6875C13.75 9.03375 15.9088 6.875 18.5625 6.875H20.625V4.8125C20.625 2.15875 22.7838 0 25.4375 0H30.9375C32.076 0 33 0.922625 33 2.0625Z" fill="#20315F"/>
</svg>
