<svg width="10" height="10" viewBox="0 0 10 10" fill="none" xmlns="http://www.w3.org/2000/svg">
<path d="M7.25 0H2.75C1.50923 0 0.5 1.02808 0.5 2.29109V8.52787C0.5 9.12855 0.854273 9.6605 1.40245 9.88253C1.95023 10.105 2.56632 9.96626 2.97255 9.52928L4.982 7.36399L7.03277 9.55095C7.30645 9.84254 7.68814 10 8.07391 10C8.25186 10 8.43105 9.96626 8.60082 9.89711C9.14695 9.67383 9.5 9.1423 9.5 8.5437V2.29109C9.5 1.02808 8.49077 0 7.25 0ZM8.27273 8.5437C8.27273 8.63076 8.22323 8.70532 8.14468 8.7374C8.06859 8.76698 7.97655 8.7474 7.9205 8.68783L5.42341 6.02516C5.30764 5.90186 5.14727 5.83188 4.97955 5.83188H4.97791C4.80977 5.83188 4.649 5.90311 4.53364 6.02766L2.08114 8.67033C2.02182 8.73407 1.93632 8.75323 1.85614 8.72157C1.77677 8.68949 1.72727 8.61493 1.72727 8.52787V2.29109C1.72727 1.71665 2.18627 1.24969 2.75 1.24969H7.25C7.81373 1.24969 8.27273 1.71665 8.27273 2.29109V8.5437ZM6.62 3.10047C6.65927 3.21003 6.62695 3.33292 6.53941 3.40831L5.89427 3.9436L6.161 4.77131C6.19741 4.88336 6.16059 5.00667 6.06855 5.07873C5.9765 5.1508 5.85009 5.15579 5.75314 5.09164L5.00205 4.59344L4.26364 5.09664C4.21782 5.12788 4.16464 5.14371 4.11186 5.14371C4.05418 5.14371 3.9965 5.12497 3.94823 5.08831C3.85536 5.0175 3.81691 4.89503 3.85168 4.78255L4.10818 3.94485L3.45977 3.40748C3.37264 3.33208 3.34073 3.2092 3.38041 3.10006C3.41968 2.99092 3.52195 2.91802 3.6365 2.91802H4.45509L4.74473 2.09031C4.78441 1.98159 4.88627 1.90952 5.00041 1.90952C5.11455 1.90952 5.21641 1.98159 5.25609 2.09031L5.54573 2.91802H6.36432C6.47886 2.91802 6.58114 2.99092 6.62041 3.10047H6.62Z" fill="#20315F"/>
</svg>
