<svg width="18" height="18" viewBox="0 0 18 18" fill="none" xmlns="http://www.w3.org/2000/svg">
<path d="M8.02501 1.50037C7.41136 0.195583 5.85615 -0.364667 4.5514 0.248986C4.00127 0.507736 3.55873 0.950283 3.30001 1.50037H1.125C0.503684 1.50037 0 2.00406 0 2.62537C0 3.24669 0.503684 3.75037 1.125 3.75037H3.29625C3.9099 5.05516 5.46511 5.61541 6.76986 5.00176C7.31995 4.74304 7.7625 4.30046 8.02125 3.75037H16.875C17.4963 3.75037 18 3.24669 18 2.62537C18 2.00406 17.4963 1.50037 16.875 1.50037H8.02501Z" fill="#20315F"/>
<path d="M12.3413 5.90637C11.33 5.90817 10.4101 6.49204 9.97801 7.40638H1.125C0.503684 7.40638 0 7.91007 0 8.53138C0 9.1527 0.503684 9.65638 1.125 9.65638H9.97499C10.5886 10.9612 12.1438 11.5214 13.4486 10.9078C13.9987 10.6491 14.4412 10.2065 14.7 9.65638H16.875C17.4963 9.65638 18 9.1527 18 8.53138C18 7.91007 17.4963 7.40638 16.875 7.40638H14.7037C14.2718 6.49229 13.3523 5.90848 12.3413 5.90637Z" fill="#20315F"/>
<path d="M5.65875 11.8126C4.64773 11.8147 3.72821 12.3985 3.29625 13.3126H1.125C0.503684 13.3126 0 13.8163 0 14.4376C0 15.0589 0.503684 15.5626 1.125 15.5626H3.29625C3.9099 16.8674 5.46511 17.4277 6.76986 16.814C7.31995 16.5553 7.7625 16.1127 8.02125 15.5626H16.875C17.4963 15.5626 18 15.0589 18 14.4376C18 13.8163 17.4963 13.3126 16.875 13.3126H8.02501C7.59245 12.3973 6.67111 11.8133 5.65875 11.8126Z" fill="#20315F"/>
</svg>
