<svg width="7" height="7" viewBox="0 0 7 7" fill="none" xmlns="http://www.w3.org/2000/svg">
<path d="M3.35406 3.20845H0.729144C0.326365 3.20845 0 3.53482 0 3.9376V4.22925C0 4.58187 0.250534 4.87615 0.583315 4.94381V5.54171H0.437486C0.195702 5.54171 0 5.73771 0 5.9792C0 6.22069 0.195702 6.41669 0.437486 6.41669H0.583315V6.56251C0.583315 6.80401 0.779017 7 1.0208 7C1.26259 7 1.45829 6.80401 1.45829 6.56251V6.41669H2.62492V6.56251C2.62492 6.80401 2.82062 7 3.0624 7C3.30419 7 3.49989 6.80401 3.49989 6.56251V6.41669H3.64572C3.8875 6.41669 4.08321 6.22069 4.08321 5.9792C4.08321 5.73771 3.8875 5.54171 3.64572 5.54171H3.49989V4.94381C3.83267 4.87615 4.08321 4.58216 4.08321 4.22925V3.9376C4.08321 3.53482 3.75684 3.20845 3.35406 3.20845ZM1.45829 5.54171V4.9584H2.62492V5.54171H1.45829ZM6.96741 3.93701C6.82245 4.5877 6.2231 5.01615 5.54149 4.95169V6.56222C5.54149 6.80372 5.34579 6.99971 5.10401 6.99971C4.86222 6.99971 4.66652 6.80372 4.66652 6.56222V4.91727C4.66652 4.67957 4.76773 4.45208 4.94418 4.29342C5.12442 4.13096 5.36796 4.05251 5.61237 4.07934C5.85765 4.10297 6.0656 3.96239 6.11343 3.74656C6.13648 3.64331 6.1251 3.54532 6.07931 3.4549C6.02244 3.34524 5.88448 3.07983 6.0761 2.67589C6.10906 2.60676 6.1251 2.54201 6.1251 2.47872C6.1251 2.3361 6.05744 2.20661 5.93902 2.12436C5.68266 1.94528 5.53391 1.64488 5.54149 1.32172C5.54295 1.26164 5.53129 1.20214 5.5062 1.13972C5.4572 1.01898 5.35221 0.92419 5.23234 0.891816C5.14688 0.868483 5.0623 0.868483 4.97597 0.891816C4.85639 0.923898 4.75139 1.01898 4.70239 1.13972C4.67702 1.20214 4.66565 1.26164 4.66681 1.32114C4.6744 1.64488 4.52594 1.94528 4.26987 2.12407C4.19433 2.17686 4.13862 2.24948 4.10829 2.33406C4.02721 2.56185 3.77638 2.68026 3.54918 2.59918C3.32169 2.5181 3.20298 2.26756 3.28406 2.04007C3.37564 1.78283 3.54335 1.56379 3.7688 1.40659C3.79009 1.39172 3.79272 1.35963 3.79213 1.34155C3.78776 1.16277 3.8213 0.984271 3.8913 0.81161C4.04325 0.435955 4.36407 0.149839 4.74935 0.0465923C4.98355 -0.0155308 5.22505 -0.0155308 5.45837 0.0465923C5.84423 0.149839 6.16506 0.435955 6.31701 0.81161C6.38701 0.984563 6.42026 1.16277 6.41588 1.34214C6.41559 1.35963 6.41792 1.39172 6.43951 1.40688C6.79008 1.65129 6.99949 2.05232 6.99949 2.47872C6.99949 2.67209 6.95457 2.86488 6.86591 3.05154L6.86095 3.06233C6.99745 3.33328 7.0342 3.63573 6.96741 3.93643V3.93701Z" fill="#76C092"/>
</svg>
