<svg width="30" height="30" viewBox="0 0 30 30" fill="none" xmlns="http://www.w3.org/2000/svg">
<path d="M30 8.9325V21.6162C30 24.94 27.6262 27.785 24.355 28.38L17.1525 29.8038C16.43 29.935 15.71 30 14.9925 30C14.2825 30 13.5775 29.9363 12.8762 29.8088L5.6175 28.375C2.37375 27.785 0 24.94 0 21.6162V8.9325C0 7.2525 0.61125 5.6375 1.72 4.3825C2.405 3.6075 3.59 3.53375 4.36625 4.22C5.1425 4.905 5.215 6.09125 4.52875 6.86625C4.17375 7.2675 3.75 7.9525 3.75 8.93125V21.615C3.75 23.1262 4.82875 24.4188 6.31625 24.69L13.125 26.035V21.875C13.125 20.8388 13.9637 20 15 20C16.0362 20 16.875 20.8388 16.875 21.875V26.035L23.6562 24.695C25.1712 24.4188 26.25 23.1262 26.25 21.615V8.9325C26.25 7.95375 25.8263 7.26875 25.47 6.8675C24.7837 6.09125 24.8562 4.9075 25.6312 4.22C26.4075 3.53375 27.5912 3.60625 28.2787 4.38125C29.3887 5.635 29.9988 7.25125 29.9988 8.93125L30 8.9325ZM18.75 0H11.25C9.17875 0 7.5 1.67875 7.5 3.75V11.25C7.5 13.3212 9.17875 15 11.25 15H11.3387L13.7625 17.4237C14.495 18.1562 15.6825 18.1562 16.4137 17.4237L18.8375 15L18.8162 14.9937C20.855 14.9563 22.4988 13.2987 22.4988 11.25V3.75C22.4988 1.67875 20.82 0 18.7487 0H18.75ZM15 2.5C16.035 2.5 16.875 3.34 16.875 4.375C16.875 5.41 16.035 6.25 15 6.25C13.965 6.25 13.125 5.41 13.125 4.375C13.125 3.34 13.965 2.5 15 2.5ZM16.25 8.75V11.25C16.25 11.94 15.69 12.5 15 12.5C14.31 12.5 13.75 11.94 13.75 11.25V8.75C13.75 8.06 14.31 7.5 15 7.5C15.69 7.5 16.25 8.06 16.25 8.75Z" fill="#20315F"/>
</svg>
