<svg width="21" height="20" viewBox="0 0 21 20" fill="none" xmlns="http://www.w3.org/2000/svg">
<path d="M14.2134 10.7093C15.1986 9.93843 15.9178 8.8813 16.2708 7.68501C16.6237 6.48872 16.593 5.21276 16.1829 4.03464C15.7727 2.85652 15.0036 1.83483 13.9823 1.11171C12.9611 0.388591 11.7387 0 10.4851 0C9.23148 0 8.00904 0.388591 6.98784 1.11171C5.96664 1.83483 5.19746 2.85652 4.78731 4.03464C4.37716 5.21276 4.34644 6.48872 4.69943 7.68501C5.05241 8.8813 5.77154 9.93843 6.75678 10.7093C5.06856 11.382 3.59553 12.4976 2.49473 13.9374C1.39392 15.3771 0.70661 17.0869 0.506062 18.8846C0.491545 19.0159 0.503164 19.1487 0.540255 19.2754C0.577346 19.4022 0.639183 19.5205 0.722235 19.6235C0.889967 19.8316 1.13393 19.9648 1.40046 19.994C1.66698 20.0231 1.93424 19.9458 2.14343 19.779C2.35263 19.6122 2.48662 19.3695 2.51594 19.1045C2.73661 17.1508 3.67331 15.3465 5.14708 14.0362C6.62086 12.7259 8.52838 12.0016 10.5052 12.0016C12.482 12.0016 14.3895 12.7259 15.8633 14.0362C17.3371 15.3465 18.2738 17.1508 18.4944 19.1045C18.5218 19.3501 18.6396 19.5769 18.8252 19.7411C19.0108 19.9054 19.251 19.9955 19.4994 19.994H19.6099C19.8734 19.9638 20.1141 19.8314 20.2798 19.6254C20.4454 19.4195 20.5225 19.1568 20.4943 18.8946C20.2928 17.0918 19.6018 15.3776 18.4953 13.9357C17.3888 12.4937 15.9087 11.3784 14.2134 10.7093ZM10.4851 9.99973C9.69006 9.99973 8.91289 9.76527 8.25184 9.326C7.5908 8.88672 7.07557 8.26237 6.77133 7.53189C6.46708 6.8014 6.38748 5.9976 6.54258 5.22212C6.69768 4.44665 7.08053 3.73433 7.6427 3.17524C8.20487 2.61615 8.92113 2.23541 9.70088 2.08115C10.4806 1.9269 11.2889 2.00607 12.0234 2.30865C12.7579 2.61122 13.3857 3.12362 13.8274 3.78103C14.2691 4.43845 14.5048 5.21137 14.5048 6.00204C14.5048 7.06229 14.0813 8.07912 13.3275 8.82883C12.5736 9.57855 11.5512 9.99973 10.4851 9.99973Z" fill="#20315F"/>
</svg>
