<svg width="15" height="15" viewBox="0 0 15 15" fill="none" xmlns="http://www.w3.org/2000/svg">
<path d="M14.0625 13.125H13.125V4.06265C13.125 2.51205 11.8631 1.25019 10.3125 1.25019H9.52625C9.37437 1.02332 9.18812 0.816446 8.97062 0.638323C8.31687 0.10208 7.46625 -0.111667 6.63562 0.055831L4.38688 0.505825C2.93125 0.797071 1.87438 2.08518 1.87438 3.56953V13.125H0.9375C0.419375 13.125 0 13.545 0 14.0625C0 14.58 0.419375 15 0.9375 15H14.0625C14.5806 15 15 14.58 15 14.0625C15 13.545 14.5806 13.125 14.0625 13.125ZM11.25 4.06265V13.125H10V3.12516H10.3125C10.8294 3.12516 11.25 3.54578 11.25 4.06265ZM3.75 3.56953C3.75 2.97579 4.1725 2.4608 4.755 2.34392L7.00375 1.89393C7.28125 1.83956 7.56437 1.90956 7.7825 2.08893C8.00062 2.26705 8.12563 2.53142 8.12563 2.81329V13.125H3.75V3.56953ZM7.5 7.8126C7.5 8.33009 7.08 8.75009 6.5625 8.75009C6.045 8.75009 5.625 8.33009 5.625 7.8126C5.625 7.29511 6.045 6.87511 6.5625 6.87511C7.08 6.87511 7.5 7.29511 7.5 7.8126Z" fill="#76C092"/>
</svg>
