<svg width="21" height="20" viewBox="0 0 21 20" fill="none" xmlns="http://www.w3.org/2000/svg">
<path d="M19.7675 7.54421L13.4467 1.21875C12.6644 0.438275 11.6047 0 10.5 0C9.39528 0 8.33563 0.438275 7.55334 1.21875L1.23251 7.54421C0.999531 7.77583 0.814818 8.05143 0.689079 8.35501C0.563339 8.6586 0.499075 8.98414 0.50001 9.31277V17.4985C0.50001 18.1619 0.763402 18.7982 1.23224 19.2673C1.70108 19.7365 2.33697 20 3.00001 20H18C18.663 20 19.2989 19.7365 19.7678 19.2673C20.2366 18.7982 20.5 18.1619 20.5 17.4985V9.31277C20.5009 8.98414 20.4367 8.6586 20.3109 8.35501C20.1852 8.05143 20.0005 7.77583 19.7675 7.54421ZM13 18.3323H8V15.052C8 14.3886 8.26339 13.7523 8.73223 13.2832C9.20108 12.8141 9.83696 12.5505 10.5 12.5505C11.163 12.5505 11.7989 12.8141 12.2678 13.2832C12.7366 13.7523 13 14.3886 13 15.052V18.3323ZM18.8333 17.4985C18.8333 17.7196 18.7455 17.9317 18.5892 18.0881C18.433 18.2445 18.221 18.3323 18 18.3323H14.6667V15.052C14.6667 13.9463 14.2277 12.8859 13.4463 12.104C12.6649 11.3221 11.6051 10.8829 10.5 10.8829C9.39493 10.8829 8.33513 11.3221 7.55373 12.104C6.77232 12.8859 6.33334 13.9463 6.33334 15.052V18.3323H3.00001C2.77899 18.3323 2.56703 18.2445 2.41075 18.0881C2.25447 17.9317 2.16668 17.7196 2.16668 17.4985V9.31277C2.16745 9.09178 2.25517 8.88 2.41084 8.72325L8.73167 2.40029C9.20142 1.93245 9.83722 1.66981 10.5 1.66981C11.1628 1.66981 11.7986 1.93245 12.2683 2.40029L18.5892 8.72575C18.7442 8.88188 18.8319 9.09265 18.8333 9.31277V17.4985Z" fill="#20315F"/>
</svg>
