<svg width="15" height="15" viewBox="0 0 15 15" fill="none" xmlns="http://www.w3.org/2000/svg">
<path d="M11.5625 15H3.4375C1.5425 15 0 13.4579 0 11.5633V6.18077C0 5.03728 0.56625 3.97253 1.515 3.33205L5.5775 0.591427C6.74437 -0.197142 8.255 -0.197142 9.42312 0.591427L13.485 3.33205C14.4338 3.9719 15 5.03728 15 6.18077V11.5633C15 13.4579 13.4575 15 11.5625 15ZM7.5 1.87613C7.19625 1.87613 6.89125 1.96611 6.62687 2.14545L2.56375 4.88544C2.13313 5.17663 1.875 5.66026 1.875 6.18015V11.5627C1.875 12.4243 2.57562 13.1248 3.4375 13.1248H11.5625C12.4244 13.1248 13.125 12.4243 13.125 11.5627V6.18077C13.125 5.66089 12.8675 5.17725 12.4363 4.88607L8.37375 2.14545C8.10812 1.96611 7.80375 1.87613 7.5 1.87613Z" fill="#76C092"/>
</svg>
