<svg width="16" height="17" viewBox="0 0 16 17" fill="none" xmlns="http://www.w3.org/2000/svg">
<path d="M13.8004 9.94101C13.3551 9.48974 12.7636 9.23802 12.1485 9.23802C11.5334 9.23802 10.9419 9.48974 10.4966 9.94101L10.2234 10.2252C8.51638 9.39726 7.14974 7.93872 6.37722 6.12032L6.63639 5.84041C7.0668 5.37698 7.31031 4.75331 7.31518 4.10193C7.32004 3.45056 7.08587 2.82285 6.66244 2.35221L5.22496 0.705433C4.78461 0.257751 4.20032 0.00550099 3.59117 8.89153e-05C2.98202 -0.00532316 2.39385 0.23651 1.94653 0.676306C1.94653 0.676306 1.23379 1.337 1.21709 1.35405C-4.05658 7.22859 9.18139 21.3171 14.7102 15.7047C14.7263 15.687 15.3475 14.9296 15.3475 14.9296C15.7754 14.4544 16.0098 13.8188 15.9997 13.1609C15.9896 12.503 15.7357 11.8759 15.2934 11.4159L13.8004 9.94101ZM13.9053 13.4519C13.8886 13.469 13.2714 14.2213 13.2714 14.2213C9.76253 17.5767 -0.634537 7.17176 2.61183 2.89C2.61183 2.89 3.31922 2.23357 3.33592 2.21581C3.39277 2.15153 3.47056 2.11279 3.55338 2.10751C3.6362 2.10223 3.71779 2.1308 3.78146 2.18739L5.21961 3.83061C5.25256 3.86334 5.27871 3.90303 5.29641 3.94713C5.31411 3.99122 5.32296 4.03877 5.32239 4.08671C5.32183 4.13465 5.31186 4.18195 5.29312 4.22556C5.27439 4.26917 5.24731 4.30814 5.2136 4.33999L4.47348 5.13993C4.33686 5.28763 4.24369 5.47449 4.20537 5.67764C4.16705 5.88078 4.18525 6.0914 4.25773 6.28372C4.75549 7.70096 5.53395 8.98781 6.54031 10.057C7.54668 11.1263 8.75744 11.9529 10.0905 12.4808C10.27 12.5538 10.4654 12.5704 10.6534 12.5285C10.8415 12.4867 11.0143 12.3883 11.1512 12.2449L11.9087 11.4507C12.1024 11.2986 12.2033 11.3001 12.4084 11.4791L13.9033 12.9525C13.9651 13.019 13.9998 13.1087 13.9998 13.2022C13.9998 13.2957 13.9651 13.3855 13.9033 13.4519H13.9053Z" fill="#76C092"/>
</svg>
