<svg width="69" height="57" viewBox="0 0 69 57" fill="none" xmlns="http://www.w3.org/2000/svg">
<path d="M0 42.8662H6.80264V32.4278C6.80645 12.1952 18.4567 0 37.8395 0C57.3137 0 68.9792 12.1152 68.9792 32.2411V56.8449H53.3998V32.0734C53.3998 20.7966 47.5308 14.1807 37.8395 14.1807C28.1481 14.1807 22.3706 20.7966 22.3706 32.0925V56.864H0V42.8662Z" fill="#76C092"/>
<path d="M45.085 42.427H30.668V56.844H45.085V42.427Z" fill="#20315F"/>
<path d="M37.8746 23.8184C38.8216 23.8179 39.7594 24.004 40.6345 24.3662C41.5095 24.7284 42.3046 25.2595 42.9742 25.9291C43.6439 26.5988 44.175 27.3938 44.5372 28.2689C44.8993 29.1439 45.0855 30.0817 45.085 31.0288V38.2354H30.668V31.0288C30.6675 30.0821 30.8535 29.1445 31.2154 28.2698C31.5774 27.395 32.1081 26.6001 32.7774 25.9305C33.4466 25.2609 34.2413 24.7297 35.1158 24.3673C35.9904 24.0049 36.9279 23.8184 37.8746 23.8184Z" fill="#20315F"/>
</svg>
