<svg width="18" height="18" viewBox="0 0 18 18" fill="none" xmlns="http://www.w3.org/2000/svg">
<path d="M9.00039 0C6.61434 0.00258003 4.32675 0.951334 2.63956 2.63809C0.952364 4.32485 0.00336516 6.61185 0.000784464 8.99728C-0.0937114 16.1749 8.36967 20.5655 14.1752 16.3578C14.2586 16.3023 14.3301 16.2307 14.3853 16.1471C14.4406 16.0636 14.4786 15.9698 14.497 15.8714C14.5154 15.7729 14.5139 15.6717 14.4926 15.5739C14.4712 15.476 14.4305 15.3834 14.3728 15.3015C14.315 15.2196 14.2415 15.1502 14.1564 15.0972C14.0714 15.0442 13.9766 15.0088 13.8776 14.9931C13.7787 14.9773 13.6776 14.9816 13.5803 15.0056C13.483 15.0295 13.3915 15.0728 13.3112 15.1327C8.47541 18.6364 1.42572 14.979 1.50072 8.99728C1.91245 -0.949213 16.0898 -0.946963 16.5001 8.99728V10.4968C16.5001 10.8945 16.342 11.2759 16.0607 11.5572C15.7795 11.8384 15.3979 11.9964 15.0001 11.9964C14.6023 11.9964 14.2208 11.8384 13.9395 11.5572C13.6582 11.2759 13.5002 10.8945 13.5002 10.4968V8.99728C13.3112 3.05233 4.68883 3.05308 4.50059 8.99728C4.50932 9.909 4.79417 10.7967 5.31759 11.5433C5.84101 12.29 6.57845 12.8605 7.4327 13.1798C8.28695 13.4991 9.21793 13.5521 10.1029 13.3319C10.9879 13.1117 11.7854 12.6285 12.3902 11.9461C12.7156 12.5202 13.2212 12.971 13.8287 13.2286C14.4363 13.4863 15.1119 13.5365 15.7508 13.3714C16.3898 13.2063 16.9565 12.8352 17.3631 12.3155C17.7697 11.7958 17.9936 11.1566 18 10.4968V8.99728C17.9974 6.61185 17.0484 4.32485 15.3612 2.63809C13.674 0.951334 11.3864 0.00258003 9.00039 0ZM9.00039 11.9964C8.20478 11.9964 7.44175 11.6804 6.87916 11.118C6.31658 10.5555 6.00052 9.79269 6.00052 8.99728C6.00052 8.20187 6.31658 7.43904 6.87916 6.8766C7.44175 6.31416 8.20478 5.99819 9.00039 5.99819C9.79601 5.99819 10.559 6.31416 11.1216 6.8766C11.6842 7.43904 12.0003 8.20187 12.0003 8.99728C12.0003 9.79269 11.6842 10.5555 11.1216 11.118C10.559 11.6804 9.79601 11.9964 9.00039 11.9964Z" fill="#76C092"/>
</svg>
