<svg width="371" height="310" viewBox="0 0 371 310" fill="none" xmlns="http://www.w3.org/2000/svg">
<path d="M266.792 0C305.547 0.000172985 337 31.4721 337 70.25V162.249C329.017 154.64 319.478 148.649 308.917 144.811V98.3496H28.083V210.75C28.083 233.932 47.0394 252.9 70.208 252.9H207.814C212.592 263.72 219.685 273.296 228.461 281H70.208C31.4532 281 0 249.528 0 210.75V70.25C5.15761e-07 31.4721 31.4532 0.000177093 70.208 0H266.792ZM126.375 126.45C134.098 126.45 140.417 132.773 140.417 140.5C140.417 148.228 134.098 154.55 126.375 154.55H112.333V210.75C112.333 218.477 106.015 224.8 98.292 224.8C90.5691 224.8 84.25 218.478 84.25 210.75V154.55H70.208C62.4852 154.55 56.167 148.227 56.167 140.5C56.167 132.773 62.4852 126.45 70.208 126.45H126.375ZM210.472 182.65C205.888 191.216 202.809 200.7 201.59 210.75H182.542C174.819 210.75 168.5 204.428 168.5 196.7C168.5 188.973 174.819 182.65 182.542 182.65H210.472ZM266.792 126.45C274.349 126.45 280.56 132.504 280.823 140.004C263.948 140.144 248.293 145.506 235.396 154.55H182.542C174.819 154.55 168.5 148.228 168.5 140.5C168.5 132.773 174.819 126.45 182.542 126.45H266.792ZM70.208 28.0996C47.0394 28.0998 28.083 47.0676 28.083 70.25H308.917C308.917 47.0676 289.961 28.0998 266.792 28.0996H70.208Z" fill="#20315F"/>
<path d="M316.111 203.968L299.579 220.5L316.111 237.032C321.11 242.031 321.11 250.112 316.111 255.111C313.618 257.604 310.345 258.857 307.071 258.857C303.798 258.857 300.525 257.604 298.032 255.111L281.5 238.579L264.968 255.111C262.475 257.604 259.202 258.857 255.929 258.857C252.655 258.857 249.382 257.604 246.889 255.111C241.89 250.112 241.89 242.031 246.889 237.032L263.421 220.5L246.889 203.968C241.89 198.969 241.89 190.888 246.889 185.889C251.888 180.89 259.969 180.89 264.968 185.889L281.5 202.421L298.032 185.889C303.031 180.89 311.112 180.89 316.111 185.889C321.11 190.888 321.11 198.969 316.111 203.968ZM371 220.5C371 269.84 330.84 310 281.5 310C232.16 310 192 269.84 192 220.5C192 171.16 232.16 131 281.5 131C330.84 131 371 171.16 371 220.5ZM345.429 220.5C345.429 185.25 316.75 156.571 281.5 156.571C246.25 156.571 217.571 185.25 217.571 220.5C217.571 255.75 246.25 284.429 281.5 284.429C316.75 284.429 345.429 255.75 345.429 220.5Z" fill="#20315F"/>
</svg>
