<svg width="26" height="26" viewBox="0 0 26 26" fill="none" xmlns="http://www.w3.org/2000/svg">
<circle cx="13" cy="13" r="13" fill="#76C092"/>
<path d="M16.1311 19.8404C11.4788 19.9709 3.24306 11.7374 7.20338 7.26259C7.21765 7.24891 7.8268 6.7187 7.8268 6.7187C8.20911 6.36577 8.7118 6.1717 9.23242 6.17605C9.75305 6.18039 10.2524 6.38282 10.6288 6.74208L11.8573 8.0636C12.2192 8.44128 12.4194 8.94502 12.4152 9.46773C12.4111 9.99045 12.2029 10.4909 11.8351 10.8628L11.6136 11.0875C12.2733 12.5463 13.4404 13.7167 14.8985 14.3816L15.1332 14.1535C15.5137 13.7916 16.0191 13.5897 16.5447 13.5897C17.0703 13.5897 17.5757 13.7916 17.9562 14.1535L19.2333 15.3365C19.6116 15.7055 19.8288 16.2088 19.8375 16.7368C19.8463 17.2648 19.646 17.7749 19.2802 18.1563C19.2802 18.1563 18.7492 18.764 18.7355 18.7783C18.3934 19.1186 17.987 19.3878 17.54 19.5701C17.0929 19.7524 16.614 19.8443 16.1311 19.8404ZM8.39542 8.49517C5.62142 11.9261 14.5006 20.2811 17.5041 17.5885C17.5041 17.5885 18.0316 16.9847 18.0459 16.971C18.0994 16.9176 18.1295 16.8451 18.1295 16.7695C18.1295 16.6939 18.0994 16.6214 18.0459 16.568L16.7682 15.3855C16.5969 15.243 16.5005 15.2413 16.3417 15.3627L15.6932 16.0001C15.5762 16.115 15.4286 16.194 15.268 16.2275C15.1074 16.2611 14.9405 16.2479 14.7872 16.1894C13.648 15.7661 12.6133 15.1031 11.7532 14.2455C10.8931 13.3878 10.2277 12.3555 9.80211 11.2186C9.74016 11.0643 9.72462 10.8952 9.75737 10.7322C9.79012 10.5692 9.86975 10.4192 9.98651 10.3007L10.6191 9.65877C10.6479 9.63322 10.671 9.60194 10.687 9.56694C10.703 9.53194 10.7116 9.49399 10.712 9.45552C10.7125 9.41704 10.705 9.37889 10.6898 9.3435C10.6747 9.30811 10.6524 9.27627 10.6242 9.25L9.39449 7.92848C9.34008 7.88307 9.27034 7.86014 9.19956 7.86438C9.12878 7.86862 9.06229 7.89971 9.0137 7.95129C9 7.96554 8.39542 8.49517 8.39542 8.49517ZM19.8419 11.5738C19.8403 10.1379 19.2683 8.76122 18.2516 7.74588C17.2348 6.73053 15.8563 6.15937 14.4184 6.15771C14.1913 6.15771 13.9735 6.24781 13.8129 6.40819C13.6523 6.56856 13.562 6.78608 13.562 7.01288C13.562 7.23969 13.6523 7.4572 13.8129 7.61758C13.9735 7.77795 14.1913 7.86805 14.4184 7.86805C15.4022 7.86926 16.3454 8.26007 17.041 8.95476C17.7367 9.64946 18.128 10.5913 18.1292 11.5738C18.1292 11.8006 18.2195 12.0181 18.3801 12.1785C18.5406 12.3388 18.7585 12.4289 18.9856 12.4289C19.2127 12.4289 19.4305 12.3388 19.5911 12.1785C19.7517 12.0181 19.8419 11.8006 19.8419 11.5738ZM16.9874 11.5738C16.9867 10.8936 16.7158 10.2415 16.2341 9.76052C15.7525 9.27956 15.0995 9.00903 14.4184 9.00827C14.1913 9.00827 13.9735 9.09837 13.8129 9.25874C13.6523 9.41912 13.562 9.63664 13.562 9.86344C13.562 10.0902 13.6523 10.3078 13.8129 10.4681C13.9735 10.6285 14.1913 10.7186 14.4184 10.7186C14.6455 10.7186 14.8633 10.8087 15.0239 10.9691C15.1845 11.1295 15.2747 11.347 15.2747 11.5738C15.2747 11.8006 15.365 12.0181 15.5256 12.1785C15.6862 12.3388 15.904 12.4289 16.1311 12.4289C16.3582 12.4289 16.576 12.3388 16.7366 12.1785C16.8972 12.0181 16.9874 11.8006 16.9874 11.5738Z" fill="#20315F"/>
</svg>
