<svg width="44" height="43" viewBox="0 0 44 43" fill="none" xmlns="http://www.w3.org/2000/svg">
<path d="M29.1569 12.5417C29.1569 14.5215 27.5534 16.125 25.5736 16.125C23.5938 16.125 21.9902 14.5215 21.9902 12.5417C21.9902 10.5619 23.5938 8.95833 25.5736 8.95833C27.5534 8.95833 29.1569 10.5619 29.1569 12.5417ZM40.8027 32.25H38.1152V29.5625C38.1152 28.079 36.913 26.875 35.4277 26.875C33.9424 26.875 32.7402 28.079 32.7402 29.5625V32.25H30.0527C28.5674 32.25 27.3652 33.454 27.3652 34.9375C27.3652 36.421 28.5674 37.625 30.0527 37.625H32.7402V40.3125C32.7402 41.796 33.9424 43 35.4277 43C36.913 43 38.1152 41.796 38.1152 40.3125V37.625H40.8027C42.288 37.625 43.4902 36.421 43.4902 34.9375C43.4902 33.454 42.288 32.25 40.8027 32.25ZM29.1569 26.875L20.3365 18.0546C17.787 15.5051 13.6518 15.5051 11.1023 18.0546L5.86523 23.2917V9.85417C5.86523 7.38346 7.87548 5.375 10.3444 5.375H28.2611C30.73 5.375 32.7402 7.38346 32.7402 9.85417V20.6042C32.7402 22.0877 33.9424 23.2917 35.4277 23.2917C36.913 23.2917 38.1152 22.0877 38.1152 20.6042V9.85417C38.1152 4.42183 33.6952 0 28.2611 0H10.3444C4.91028 0 0.490234 4.42183 0.490234 9.85417V27.7708C0.490234 33.2032 4.91028 37.625 10.3444 37.625H21.0944C22.5797 37.625 23.7819 36.421 23.7819 34.9375V34.0417C23.7819 31.0729 26.1881 28.6667 29.1569 28.6667V26.875Z" fill="#20315F" fill-opacity="0.5"/>
</svg>
