<svg width="20" height="20" viewBox="0 0 20 20" fill="none" xmlns="http://www.w3.org/2000/svg">
<path d="M18.1451 4.84202L12.6653 0.85619C11.932 0.325058 11.0559 0.0267415 10.1509 0H10.1309H10.115H10.0942C10.035 0 9.97666 0 9.9183 0H9.88829H9.87245H9.85911C8.95305 0.0260751 8.07591 0.32475 7.34223 0.857024L1.86328 4.84202C1.287 5.26277 0.817989 5.81341 0.494262 6.44927C0.170535 7.08514 0.00120447 7.78835 0 8.50188C0.00175974 9.11866 0.247557 9.70968 0.683693 10.1458C1.11983 10.582 1.71085 10.8278 2.32764 10.8295H8.75365V18.7495C8.75365 19.0811 8.8854 19.3992 9.11992 19.6337C9.35443 19.8682 9.67251 20 10.0042 20C10.3358 20 10.6539 19.8682 10.8884 19.6337C11.1229 19.3992 11.2547 19.0811 11.2547 18.7495V10.8295H17.6807C18.2975 10.8278 18.8885 10.582 19.3246 10.1458C19.7608 9.70968 20.0066 9.11866 20.0083 8.50188C20.0071 7.78835 19.8378 7.08514 19.5141 6.44927C19.1903 5.81341 18.7213 5.26277 18.1451 4.84202ZM12.2034 8.32847H7.80492V8.19341C7.80456 7.81285 7.91682 7.44069 8.12755 7.1238C8.14506 7.09712 8.1609 7.07128 8.17674 7.0446L10.0042 3.79408L11.8316 7.04544C11.8474 7.07211 11.8633 7.09796 11.8808 7.12463C12.0915 7.44152 12.2038 7.81368 12.2034 8.19425V8.32847ZM3.33472 6.86453L6.84118 4.31346L6.01667 5.78074C5.55001 6.49881 5.30208 7.33703 5.30304 8.19341V8.32847H2.50855C2.53398 8.03967 2.62085 7.75965 2.76334 7.50717C2.90583 7.25468 3.10064 7.03558 3.33472 6.86453ZM14.7045 8.32847V8.19341C14.7054 7.33703 14.4575 6.49881 13.9908 5.78074L13.1655 4.31346L16.6736 6.86453C16.9077 7.03558 17.1025 7.25468 17.245 7.50717C17.3875 7.75965 17.4744 8.03967 17.4998 8.32847H14.7045Z" fill="#20315F"/>
</svg>
