<svg width="20" height="20" viewBox="0 0 20 20" fill="none" xmlns="http://www.w3.org/2000/svg">
<path d="M10.8333 4.16667H9.58333C7.51583 4.16667 5.83333 5.84917 5.83333 7.91667V14.5833C5.83333 15.2742 6.39333 15.8333 7.08333 15.8333C7.77333 15.8333 8.33333 15.2742 8.33333 14.5833V12.5H10.8333C13.1308 12.5 15 10.6308 15 8.33333C15 6.03583 13.1308 4.16667 10.8333 4.16667ZM10.8333 10H8.33333V7.91667C8.33333 7.2275 8.89417 6.66667 9.58333 6.66667H10.8333C11.7525 6.66667 12.5 7.41417 12.5 8.33333C12.5 9.2525 11.7525 10 10.8333 10ZM15.4167 0H4.58333C2.05667 0 0 2.05583 0 4.58333V15.4167C0 17.9442 2.05667 20 4.58333 20H15.4167C17.9433 20 20 17.9442 20 15.4167V4.58333C20 2.05583 17.9433 0 15.4167 0ZM17.5 15.4167C17.5 16.565 16.5658 17.5 15.4167 17.5H4.58333C3.43417 17.5 2.5 16.565 2.5 15.4167V4.58333C2.5 3.435 3.43417 2.5 4.58333 2.5H15.4167C16.5658 2.5 17.5 3.435 17.5 4.58333V15.4167Z" fill="#20315F"/>
</svg>
