<svg width="20" height="20" viewBox="0 0 20 20" fill="none" xmlns="http://www.w3.org/2000/svg">
<path d="M15.4167 0H4.58333C2.05667 0 0 2.05583 0 4.58333V5.41667C0 7.48417 1.6825 9.16667 3.75 9.16667H16.25C18.3175 9.16667 20 7.48417 20 5.41667V4.58333C20 2.05583 17.9433 0 15.4167 0ZM17.5 5.41667C17.5 6.10583 16.9392 6.66667 16.25 6.66667H15.7617C15.8075 6.53667 15.8333 6.39583 15.8333 6.25C15.8333 5.55917 15.2733 5 14.5833 5H5.41667C4.72667 5 4.16667 5.55917 4.16667 6.25C4.16667 6.39583 4.19167 6.53667 4.23833 6.66667H3.75C3.06083 6.66667 2.5 6.10583 2.5 5.41667V4.58333C2.5 3.435 3.43417 2.5 4.58333 2.5H15.4167C16.5658 2.5 17.5 3.435 17.5 4.58333V5.41667ZM9.16667 12.0833V16.25C9.16667 18.3175 7.48417 20 5.41667 20C3.34917 20 1.66667 18.3175 1.66667 16.25C1.66667 15.0625 2.21167 13.9083 3.12583 13.1617C3.65917 12.7258 4.44833 12.8042 4.88417 13.3383C5.32083 13.8733 5.2425 14.66 4.7075 15.0975C4.37833 15.3658 4.16667 15.8183 4.16667 16.25C4.16667 16.9392 4.7275 17.5 5.41667 17.5C6.10583 17.5 6.66667 16.9392 6.66667 16.25V12.0833C6.66667 11.3925 7.22667 10.8333 7.91667 10.8333C8.60667 10.8333 9.16667 11.3925 9.16667 12.0833ZM18.3333 16.25C18.3333 18.3175 16.6508 20 14.5833 20C12.5158 20 10.8333 18.3175 10.8333 16.25V12.0833C10.8333 11.3925 11.3933 10.8333 12.0833 10.8333C12.7733 10.8333 13.3333 11.3925 13.3333 12.0833V16.25C13.3333 16.9392 13.8942 17.5 14.5833 17.5C15.2725 17.5 15.8333 16.9392 15.8333 16.25C15.8333 15.8183 15.6208 15.3658 15.2925 15.0975C14.7575 14.6608 14.6792 13.8733 15.1158 13.3383C15.5517 12.8033 16.3408 12.725 16.8742 13.1617C17.7883 13.9083 18.3333 15.0625 18.3333 16.25Z" fill="#20315F"/>
</svg>
