<svg width="21" height="20" viewBox="0 0 21 20" fill="none" xmlns="http://www.w3.org/2000/svg">
<path d="M19.9591 12.0844L19.4625 10.4169C19.0966 9.1903 17.9475 8.33366 16.6675 8.33366H3.4154C2.13461 8.33366 0.985472 9.1903 0.620482 10.4169L0.123829 12.0836C-0.141997 12.9744 0.024665 13.9135 0.580483 14.6601C1.1363 15.406 1.98878 15.8334 2.91875 15.8334H8.83192V17.5001H6.33199C5.64118 17.5001 5.08202 18.0601 5.08202 18.75C5.08202 19.44 5.64118 20 6.33199 20H13.8318C14.5218 20 15.0817 19.44 15.0817 18.75C15.0817 18.0601 14.5218 17.5001 13.8318 17.5001H11.3319V15.8334H17.1642C18.0942 15.8334 18.9475 15.4051 19.5033 14.6593C20.0591 13.9135 20.2249 12.9752 19.9591 12.0844ZM8.10777 13.3335L8.3161 10.8336H11.8485L12.0568 13.3335H8.10777ZM2.58543 13.166C2.53876 13.1035 2.46793 12.9727 2.52043 12.7985L3.01708 11.1311C3.06958 10.9536 3.23041 10.8344 3.41624 10.8344H5.80784L5.59951 13.3344H2.91958C2.73792 13.3344 2.63209 13.2294 2.58543 13.1669V13.166ZM17.4983 13.166C17.4517 13.2285 17.3458 13.3335 17.165 13.3335H14.5668L14.3584 10.8336H16.6684C16.8542 10.8336 17.015 10.9536 17.0675 11.1302L17.5642 12.7977C17.6158 12.9719 17.5458 13.1027 17.4992 13.1652L17.4983 13.166ZM4.24871 5.41707C4.24871 4.72709 4.80787 4.16711 5.49868 4.16711H6.107C6.25616 3.69462 6.49365 3.2638 6.78948 2.88048L6.14533 1.97384C5.74617 1.41135 5.87784 0.631374 6.44115 0.231385C7.00364 -0.168604 7.78445 -0.0361078 8.1836 0.526376L8.83692 1.44635C9.23107 1.32302 9.6469 1.24969 10.0811 1.24969C10.5152 1.24969 10.9319 1.32219 11.3252 1.44635L11.9777 0.526376C12.3777 -0.0377744 13.1585 -0.167771 13.721 0.230551C14.2843 0.629707 14.4168 1.41052 14.0168 1.97384L13.3726 2.88131C13.6685 3.26463 13.9068 3.69545 14.0551 4.16711H14.6626C15.3526 4.16711 15.9126 4.72709 15.9126 5.41707C15.9126 6.10705 15.3526 6.66704 14.6626 6.66704H12.996C12.306 6.66704 11.746 6.10705 11.746 5.41707C11.746 4.49793 10.9985 3.75045 10.0794 3.75045C9.16024 3.75045 8.41276 4.49793 8.41276 5.41707C8.41276 6.10705 7.85361 6.66704 7.1628 6.66704H5.49618C4.80537 6.66704 4.24621 6.10705 4.24621 5.41707H4.24871Z" fill="#20315F"/>
</svg>
