<svg width="20" height="20" viewBox="0 0 20 20" fill="none" xmlns="http://www.w3.org/2000/svg">
<path d="M7.0867 2.50008C7.0867 2.00561 7.23333 1.52225 7.50804 1.11111C7.78275 0.699975 8.17321 0.379533 8.63004 0.190308C9.08687 0.00108326 9.58955 -0.0484267 10.0745 0.0480395C10.5595 0.144506 11.005 0.382615 11.3546 0.732258C11.7042 1.0819 11.9424 1.52737 12.0388 2.01234C12.1353 2.49731 12.0858 2.99999 11.8966 3.45682C11.7073 3.91365 11.3869 4.30411 10.9757 4.57882C10.5646 4.85353 10.0812 5.00016 9.58678 5.00016C8.92372 5.00016 8.28781 4.73676 7.81896 4.2679C7.3501 3.79905 7.0867 3.16314 7.0867 2.50008ZM18.7537 16.6672H17.9337L17.0037 14.3338C16.7886 13.7915 16.4152 13.3266 15.9321 12.9996C15.449 12.6726 14.8786 12.4986 14.2953 12.5004H11.2535C11.143 12.5004 11.037 12.4565 10.9589 12.3784C10.8807 12.3002 10.8368 12.1942 10.8368 12.0837V10.8337H14.5869C14.9185 10.8337 15.2364 10.702 15.4709 10.4676C15.7053 10.2331 15.837 9.91517 15.837 9.58364C15.837 9.25211 15.7053 8.93416 15.4709 8.69973C15.2364 8.4653 14.9185 8.3336 14.5869 8.3336H10.8368V7.08356C10.8368 6.75203 10.7051 6.43408 10.4707 6.19965C10.2363 5.96522 9.91831 5.83352 9.58678 5.83352C9.25525 5.83352 8.9373 5.96522 8.70287 6.19965C8.46844 6.43408 8.33674 6.75203 8.33674 7.08356V12.0837C8.33926 12.7266 8.55413 13.3507 8.94793 13.8589C9.34173 14.367 9.89239 14.7309 10.5143 14.8938C10.2454 15.5544 9.81105 16.1348 9.25307 16.5791C8.69508 17.0234 8.0322 17.3167 7.32813 17.4308C6.62405 17.5449 5.90246 17.476 5.2327 17.2307C4.56294 16.9854 3.96753 16.572 3.50369 16.0302C3.03985 15.4883 2.72318 14.8363 2.58411 14.1367C2.44503 13.4371 2.48823 12.7136 2.70956 12.0355C2.93088 11.3575 3.32289 10.7477 3.84791 10.2649C4.37293 9.78212 5.0133 9.44248 5.70749 9.27863C6.03018 9.20238 6.30936 9.00106 6.48362 8.71897C6.65788 8.43687 6.71294 8.09711 6.63669 7.77442C6.56043 7.45173 6.35912 7.17254 6.07702 6.99828C5.79493 6.82403 5.45516 6.76897 5.13247 6.84522C3.98299 7.11707 2.92638 7.68944 2.07075 8.50375C1.21511 9.31806 0.591188 10.3451 0.262812 11.4797C-0.0655648 12.6143 -0.0866005 13.8158 0.201857 14.9612C0.490315 16.1067 1.07791 17.1549 1.90451 17.9986C2.73111 18.8424 3.76705 19.4514 4.9063 19.7633C6.04556 20.0753 7.24723 20.0789 8.38836 19.7739C9.5295 19.4689 10.5691 18.8662 11.4008 18.0275C12.2325 17.1888 12.8265 16.1441 13.1219 15.0005H14.2886C14.3717 15.0004 14.4529 15.0252 14.5219 15.0717C14.5908 15.1182 14.6442 15.1842 14.6753 15.2613L15.9253 18.3814C16.0182 18.6136 16.1785 18.8125 16.3856 18.9526C16.5927 19.0927 16.837 19.1675 17.087 19.1673H18.7537C19.0853 19.1673 19.4032 19.0356 19.6376 18.8012C19.8721 18.5667 20.0038 18.2488 20.0038 17.9172C20.0038 17.5857 19.8721 17.2678 19.6376 17.0333C19.4032 16.7989 19.0853 16.6672 18.7537 16.6672Z" fill="#20315F" fill-opacity="0.5"/>
</svg>
