<svg width="20" height="20" viewBox="0 0 20 20" fill="none" xmlns="http://www.w3.org/2000/svg">
<path d="M13.3392 2.08333C13.3392 0.933333 14.2725 0 15.4225 0C16.5725 0 17.5059 0.933333 17.5059 2.08333C17.5059 3.23333 16.5725 4.16667 15.4225 4.16667C14.2725 4.16667 13.3392 3.23333 13.3392 2.08333ZM19.2642 15.6667C19.0059 15.9667 18.6892 16.2083 18.3392 16.375V18.75C18.3392 19.4417 17.7809 20 17.0892 20C16.3975 20 15.8392 19.4417 15.8392 18.75V16.6667H15.0059V18.75C15.0059 19.4417 14.4475 20 13.7559 20C13.0642 20 12.5059 19.4417 12.5059 18.75V16.375C12.1559 16.2083 11.8392 15.9667 11.5809 15.6667C11.0225 15.0333 10.7725 14.1917 10.8892 13.35L11.5725 8.35833C11.8392 6.44167 13.4892 4.99167 15.4309 4.99167C17.3725 4.99167 19.0225 6.44167 19.2892 8.35833L19.9725 13.35C20.0892 14.1833 19.8309 15.025 19.2809 15.6583L19.2642 15.6667ZM13.4642 14.025C13.5142 14.075 13.6142 14.1667 13.7809 14.1667H17.0725C17.2392 14.1667 17.3392 14.075 17.3892 14.025C17.4392 13.975 17.5142 13.8583 17.4892 13.6917L16.8059 8.7C16.7142 8.01667 16.1225 7.5 15.4309 7.5C14.7392 7.5 14.1475 8.01667 14.0559 8.7L13.3725 13.6917C13.3475 13.8583 13.4225 13.9667 13.4725 14.025H13.4642ZM4.58919 4.16667C5.73919 4.16667 6.67253 3.23333 6.67253 2.08333C6.67253 0.933333 5.73919 0 4.58919 0C3.43919 0 2.50586 0.933333 2.50586 2.08333C2.50586 3.23333 3.43919 4.16667 4.58919 4.16667ZM9.17253 8.75V11.25C9.17253 12.55 8.51419 13.6917 7.50586 14.3667V18.75C7.50586 19.4417 6.94753 20 6.25586 20C5.56419 20 5.00586 19.4417 5.00586 18.75V15H4.17253V18.75C4.17253 19.4417 3.61419 20 2.92253 20C2.23086 20 1.67253 19.4417 1.67253 18.75V14.3667C0.664193 13.6917 0.00585938 12.55 0.00585938 11.25V8.75C0.00585938 6.68333 1.68919 5 3.75586 5H5.42253C7.48919 5 9.17253 6.68333 9.17253 8.75ZM2.50586 11.25C2.50586 11.9417 3.06419 12.5 3.75586 12.5H5.42253C6.11419 12.5 6.67253 11.9417 6.67253 11.25V8.75C6.67253 8.05833 6.11419 7.5 5.42253 7.5H3.75586C3.06419 7.5 2.50586 8.05833 2.50586 8.75V11.25Z" fill="#20315F"/>
</svg>
