<svg width="20" height="20" viewBox="0 0 20 20" fill="none" xmlns="http://www.w3.org/2000/svg">
<path d="M19.8765 12.0344L19.3819 10.3738C19.0176 9.15226 17.8732 8.29916 16.5985 8.29916H3.40127C2.12577 8.29916 0.981392 9.15226 0.617913 10.3738L0.123316 12.0335C-0.141409 12.9207 0.0245629 13.8559 0.57808 14.5995C1.1316 15.3422 1.98054 15.7679 2.90667 15.7679H8.79536V17.4276H6.30578C5.61782 17.4276 5.06099 17.9853 5.06099 18.6724C5.06099 19.3595 5.61782 19.9172 6.30578 19.9172H13.7745C14.4616 19.9172 15.0193 19.3595 15.0193 18.6724C15.0193 17.9853 14.4616 17.4276 13.7745 17.4276H11.2849V15.7679H17.0931C18.0193 15.7679 18.869 15.3414 19.4226 14.5986C19.9761 13.8559 20.1412 12.9215 19.8765 12.0344ZM8.07421 13.2783L8.28168 10.7887H11.7995L12.0069 13.2783H8.07421ZM2.57472 13.1115C2.52825 13.0493 2.45771 12.919 2.51 12.7456L3.00459 11.085C3.05687 10.9082 3.21704 10.7896 3.4021 10.7896H5.7838L5.57633 13.2792H2.9075C2.72659 13.2792 2.6212 13.1746 2.57472 13.1124V13.1115ZM17.4259 13.1115C17.3794 13.1738 17.274 13.2783 17.094 13.2783H14.5065L14.299 10.7887H16.5994C16.7844 10.7887 16.9446 10.9082 16.9969 11.0842L17.4915 12.7447C17.5429 12.9182 17.4732 13.0485 17.4267 13.1107L17.4259 13.1115ZM4.23113 5.39465C4.23113 4.70753 4.78796 4.14986 5.47592 4.14986H6.08172C6.23026 3.67933 6.46677 3.25029 6.76137 2.86855L6.11989 1.96567C5.72239 1.40551 5.85351 0.62876 6.41449 0.230427C6.97465 -0.167906 7.75223 -0.0359584 8.14973 0.524198L8.80034 1.44036C9.19286 1.31754 9.60696 1.24452 10.0393 1.24452C10.4717 1.24452 10.8866 1.31671 11.2783 1.44036L11.9281 0.524198C12.3264 -0.0376181 13.104 -0.167076 13.6642 0.229597C14.2251 0.6271 14.3571 1.40468 13.9588 1.96567L13.3173 2.86938C13.6119 3.25112 13.8492 3.68016 13.9969 4.14986H14.6019C15.289 4.14986 15.8467 4.70753 15.8467 5.39465C15.8467 6.08177 15.289 6.63944 14.6019 6.63944H12.9422C12.255 6.63944 11.6974 6.08177 11.6974 5.39465C11.6974 4.47931 10.953 3.73493 10.0377 3.73493C9.12233 3.73493 8.37794 4.47931 8.37794 5.39465C8.37794 6.08177 7.8211 6.63944 7.13315 6.63944H5.47343C4.78547 6.63944 4.22864 6.08177 4.22864 5.39465H4.23113Z" fill="#20315F"/>
</svg>
