<svg width="19" height="19" viewBox="0 0 19 19" fill="none" xmlns="http://www.w3.org/2000/svg">
<path d="M0.000365802 9.35946C0.000366028 4.19036 4.19073 1.83167e-07 9.35983 4.09115e-07C14.5289 6.35064e-07 18.7195 4.19036 18.7195 9.35947C18.7195 14.5286 14.5289 18.7191 9.35983 18.7191C4.19313 18.7133 0.0061924 14.5263 0.000365802 9.35946ZM17.7834 9.35947C17.7834 4.70724 14.0121 0.935896 9.35983 0.935895C4.7076 0.935895 0.936261 4.70724 0.936261 9.35946C0.936261 14.0117 4.7076 17.783 9.35983 17.783C14.0098 17.7777 17.7781 14.0095 17.7834 9.35947Z" fill="#20315F"/>
<path d="M5.73173 8.26371C5.56156 8.06902 5.58144 7.7734 5.77595 7.60322C5.97064 7.43321 6.26626 7.45309 6.43644 7.64761L9.35981 10.9888L12.2833 7.64743C12.4535 7.45275 12.7491 7.43304 12.9437 7.60305C13.1383 7.77323 13.1582 8.06885 12.988 8.26354L9.71216 12.0073C9.62338 12.1089 9.49485 12.1672 9.35981 12.1672C9.22476 12.1672 9.0964 12.1089 9.00745 12.0073L5.73173 8.26371Z" fill="#20315F"/>
</svg>
