<svg width="19" height="19" viewBox="0 0 19 19" fill="none" xmlns="http://www.w3.org/2000/svg">
<path d="M18.7192 9.35929C18.7192 14.5284 14.5289 18.7188 9.35977 18.7188C4.19067 18.7188 0.000137146 14.5284 0.00013692 9.35929C0.000136694 4.19018 4.19067 -0.000350317 9.35977 -0.000350543C14.5265 0.00547618 18.7134 4.19241 18.7192 9.35929ZM0.936203 9.35929C0.936203 14.0115 4.70755 17.7829 9.35977 17.7829C14.012 17.7829 17.7833 14.0115 17.7833 9.35929C17.7833 4.70706 14.012 0.935715 9.35977 0.935715C4.70977 0.941029 0.941516 4.70929 0.936203 9.35929Z" fill="#20315F"/>
<path d="M12.9879 10.455C13.158 10.6497 13.1382 10.9453 12.9437 11.1155C12.749 11.2855 12.4533 11.2656 12.2832 11.0711L9.3598 7.72994L6.43626 11.0713C6.26608 11.266 5.97046 11.2857 5.77594 11.1157C5.58126 10.9455 5.56138 10.6499 5.73156 10.4552L9.00745 6.71144C9.09622 6.60982 9.22475 6.55155 9.3598 6.55155C9.49484 6.55155 9.62321 6.60982 9.71215 6.71144L12.9879 10.455Z" fill="#20315F"/>
</svg>
