<svg width="27" height="27" viewBox="0 0 27 27" fill="none" xmlns="http://www.w3.org/2000/svg">
<path d="M0 5C0 2.23858 2.23858 0 5 0H27V22C27 24.7614 24.7614 27 22 27H0V5Z" fill="#76C092"/>
<path d="M20.0917 7.96667H17.7925C17.6204 7.12963 17.1649 6.37753 16.5029 5.83713C15.8409 5.29673 15.0129 5.00108 14.1583 5L12.675 5C11.8204 5.00108 10.9924 5.29673 10.3304 5.83713C9.66842 6.37753 9.21297 7.12963 9.04083 7.96667H6.74167C6.54496 7.96667 6.35632 8.04481 6.21723 8.1839C6.07814 8.32299 6 8.51163 6 8.70833C6 8.90504 6.07814 9.09368 6.21723 9.23277C6.35632 9.37186 6.54496 9.45 6.74167 9.45H7.48333V19.0917C7.48451 20.0748 7.87559 21.0174 8.57078 21.7126C9.26597 22.4077 10.2085 22.7988 11.1917 22.8H15.6417C16.6248 22.7988 17.5674 22.4077 18.2626 21.7126C18.9577 21.0174 19.3488 20.0748 19.35 19.0917V9.45H20.0917C20.2884 9.45 20.477 9.37186 20.6161 9.23277C20.7552 9.09368 20.8333 8.90504 20.8333 8.70833C20.8333 8.51163 20.7552 8.32299 20.6161 8.1839C20.477 8.04481 20.2884 7.96667 20.0917 7.96667ZM12.675 6.48333H14.1583C14.6184 6.48389 15.067 6.62675 15.4426 6.89232C15.8183 7.15789 16.1026 7.53316 16.2565 7.96667H10.5768C10.7308 7.53316 11.0151 7.15789 11.3907 6.89232C11.7664 6.62675 12.215 6.48389 12.675 6.48333ZM17.8667 19.0917C17.8667 19.6818 17.6322 20.2477 17.215 20.665C16.7977 21.0822 16.2318 21.3167 15.6417 21.3167H11.1917C10.6016 21.3167 10.0356 21.0822 9.61835 20.665C9.20109 20.2477 8.96667 19.6818 8.96667 19.0917V9.45H17.8667V19.0917Z" fill="#20315F"/>
<path d="M11.9331 18.3493C12.1298 18.3493 12.3184 18.2712 12.4575 18.1321C12.5966 17.993 12.6747 17.8044 12.6747 17.6077V13.1577C12.6747 12.961 12.5966 12.7723 12.4575 12.6332C12.3184 12.4942 12.1298 12.416 11.9331 12.416C11.7364 12.416 11.5477 12.4942 11.4086 12.6332C11.2695 12.7723 11.1914 12.961 11.1914 13.1577V17.6077C11.1914 17.8044 11.2695 17.993 11.4086 18.1321C11.5477 18.2712 11.7364 18.3493 11.9331 18.3493Z" fill="#20315F"/>
<path d="M14.8989 18.3495C15.0956 18.3495 15.2842 18.2713 15.4233 18.1322C15.5624 17.9932 15.6406 17.8045 15.6406 17.6078V13.1578C15.6406 12.9611 15.5624 12.7725 15.4233 12.6334C15.2842 12.4943 15.0956 12.4161 14.8989 12.4161C14.7022 12.4161 14.5135 12.4943 14.3745 12.6334C14.2354 12.7725 14.1572 12.9611 14.1572 13.1578V17.6078C14.1572 17.8045 14.2354 17.9932 14.3745 18.1322C14.5135 18.2713 14.7022 18.3495 14.8989 18.3495Z" fill="#20315F"/>
</svg>
