<svg width="14" height="13" viewBox="0 0 14 13" fill="none" xmlns="http://www.w3.org/2000/svg">
<path d="M0.466667 2.32115H0.532933C0.634793 2.71934 0.867093 3.07241 1.19313 3.32459C1.51917 3.57676 1.92037 3.71366 2.33333 3.71366C2.7463 3.71366 3.14749 3.57676 3.47353 3.32459C3.79957 3.07241 4.03187 2.71934 4.13373 2.32115H13.5333C13.6571 2.32115 13.7758 2.27223 13.8633 2.18515C13.9508 2.09808 14 1.97998 14 1.85683C14 1.73369 13.9508 1.61559 13.8633 1.52851C13.7758 1.44143 13.6571 1.39252 13.5333 1.39252H4.13373C4.03187 0.994325 3.79957 0.641253 3.47353 0.389077C3.14749 0.136902 2.7463 0 2.33333 0C1.92037 0 1.51917 0.136902 1.19313 0.389077C0.867093 0.641253 0.634793 0.994325 0.532933 1.39252H0.466667C0.342899 1.39252 0.2242 1.44143 0.136683 1.52851C0.0491665 1.61559 0 1.73369 0 1.85683C0 1.97998 0.0491665 2.09808 0.136683 2.18515C0.2242 2.27223 0.342899 2.32115 0.466667 2.32115ZM2.33333 0.928199C2.51793 0.928199 2.69838 0.982663 2.85187 1.0847C3.00535 1.18674 3.12498 1.33177 3.19562 1.50146C3.26626 1.67115 3.28475 1.85786 3.24873 2.038C3.21272 2.21814 3.12383 2.3836 2.9933 2.51348C2.86277 2.64335 2.69647 2.73179 2.51542 2.76762C2.33437 2.80345 2.14671 2.78506 1.97616 2.71478C1.80562 2.64449 1.65985 2.52547 1.5573 2.37275C1.45474 2.22004 1.4 2.0405 1.4 1.85683C1.4 1.61054 1.49833 1.37434 1.67337 1.20019C1.8484 1.02604 2.0858 0.928199 2.33333 0.928199ZM13.5333 6.03568H13.4671C13.3652 5.63749 13.1329 5.28442 12.8069 5.03224C12.4808 4.78007 12.0796 4.64317 11.6667 4.64317C11.2537 4.64317 10.8525 4.78007 10.5265 5.03224C10.2004 5.28442 9.96813 5.63749 9.86627 6.03568H0.466667C0.342899 6.03568 0.2242 6.0846 0.136683 6.17168C0.0491665 6.25875 0 6.37685 0 6.5C0 6.62314 0.0491665 6.74124 0.136683 6.82832C0.2242 6.9154 0.342899 6.96432 0.466667 6.96432H9.86627C9.96813 7.36251 10.2004 7.71558 10.5265 7.96775C10.8525 8.21993 11.2537 8.35683 11.6667 8.35683C12.0796 8.35683 12.4808 8.21993 12.8069 7.96775C13.1329 7.71558 13.3652 7.36251 13.4671 6.96432H13.5333C13.6571 6.96432 13.7758 6.9154 13.8633 6.82832C13.9508 6.74124 14 6.62314 14 6.5C14 6.37685 13.9508 6.25875 13.8633 6.17168C13.7758 6.0846 13.6571 6.03568 13.5333 6.03568ZM11.6667 7.42863C11.4821 7.42863 11.3016 7.37417 11.1481 7.27213C10.9946 7.17009 10.875 7.02506 10.8044 6.85537C10.7337 6.68569 10.7153 6.49897 10.7513 6.31883C10.7873 6.13869 10.8762 5.97323 11.0067 5.84336C11.1372 5.71348 11.3035 5.62504 11.4846 5.58921C11.6656 5.55338 11.8533 5.57177 12.0238 5.64205C12.1944 5.71234 12.3401 5.83137 12.4427 5.98408C12.5453 6.13679 12.6 6.31633 12.6 6.5C12.6 6.74629 12.5017 6.98249 12.3266 7.15664C12.1516 7.33079 11.9142 7.42863 11.6667 7.42863ZM13.5333 10.6789H8.8004C8.69854 10.2807 8.46624 9.92759 8.1402 9.67541C7.81416 9.42324 7.41297 9.28633 7 9.28633C6.58703 9.28633 6.18584 9.42324 5.8598 9.67541C5.53376 9.92759 5.30146 10.2807 5.1996 10.6789H0.466667C0.342899 10.6789 0.2242 10.7278 0.136683 10.8148C0.0491665 10.9019 0 11.02 0 11.1432C0 11.2663 0.0491665 11.3844 0.136683 11.4715C0.2242 11.5586 0.342899 11.6075 0.466667 11.6075H5.1996C5.30146 12.0057 5.53376 12.3587 5.8598 12.6109C6.18584 12.8631 6.58703 13 7 13C7.41297 13 7.81416 12.8631 8.1402 12.6109C8.46624 12.3587 8.69854 12.0057 8.8004 11.6075H13.5333C13.6571 11.6075 13.7758 11.5586 13.8633 11.4715C13.9508 11.3844 14 11.2663 14 11.1432C14 11.02 13.9508 10.9019 13.8633 10.8148C13.7758 10.7278 13.6571 10.6789 13.5333 10.6789ZM7 12.0718C6.8154 12.0718 6.63495 12.0173 6.48147 11.9153C6.32798 11.8133 6.20835 11.6682 6.13771 11.4985C6.06707 11.3289 6.04859 11.1421 6.0846 10.962C6.12061 10.7819 6.20951 10.6164 6.34003 10.4865C6.47056 10.3567 6.63687 10.2682 6.81792 10.2324C6.99896 10.1965 7.18663 10.2149 7.35717 10.2852C7.52772 10.3555 7.67348 10.4745 7.77604 10.6272C7.87859 10.78 7.93333 10.9595 7.93333 11.1432C7.93333 11.3895 7.835 11.6257 7.65997 11.7998C7.48493 11.974 7.24754 12.0718 7 12.0718Z" fill="#20315F"/>
</svg>
