<svg width="7" height="7" viewBox="0 0 7 7" fill="none" xmlns="http://www.w3.org/2000/svg">
<path d="M2.47988 0.874863C2.47988 0.701832 2.53119 0.532686 2.62732 0.388815C2.72345 0.244945 2.86008 0.132812 3.01994 0.0665953C3.1798 0.000379068 3.35571 -0.0169461 3.52542 0.0168106C3.69512 0.0505674 3.85101 0.13389 3.97336 0.256242C4.09571 0.378593 4.17904 0.534479 4.21279 0.704186C4.24655 0.873892 4.22922 1.0498 4.16301 1.20966C4.09679 1.36952 3.98466 1.50615 3.84079 1.60228C3.69692 1.69842 3.52777 1.74973 3.35474 1.74973C3.12271 1.74973 2.90019 1.65755 2.73612 1.49348C2.57205 1.32942 2.47988 1.10689 2.47988 0.874863ZM6.56257 5.83242H6.27561L5.95017 5.01588C5.8749 4.82612 5.74423 4.66343 5.57518 4.549C5.40613 4.43457 5.20653 4.3737 5.0024 4.37431H3.93798C3.89931 4.37431 3.86222 4.35895 3.83488 4.33161C3.80753 4.30426 3.79217 4.26717 3.79217 4.2285V3.79107H5.10446C5.22048 3.79107 5.33174 3.74499 5.41378 3.66295C5.49581 3.58092 5.5419 3.46965 5.5419 3.35364C5.5419 3.23763 5.49581 3.12636 5.41378 3.04433C5.33174 2.9623 5.22048 2.91621 5.10446 2.91621H3.79217V2.47878C3.79217 2.36276 3.74608 2.2515 3.66405 2.16947C3.58202 2.08743 3.47075 2.04135 3.35474 2.04135C3.23873 2.04135 3.12746 2.08743 3.04543 2.16947C2.96339 2.2515 2.91731 2.36276 2.91731 2.47878V4.2285C2.91819 4.45348 2.99338 4.67185 3.13118 4.84968C3.26899 5.02752 3.46168 5.15484 3.67931 5.21185C3.58521 5.44302 3.43322 5.6461 3.23796 5.80158C3.0427 5.95705 2.81074 6.05968 2.56436 6.09962C2.31798 6.13956 2.06547 6.11545 1.8311 6.02962C1.59673 5.94378 1.38837 5.79911 1.22606 5.6095C1.06375 5.41989 0.952933 5.19172 0.904266 4.94692C0.855599 4.70211 0.870717 4.44891 0.948166 4.21163C1.02562 3.97436 1.16279 3.76099 1.34651 3.59205C1.53024 3.4231 1.75432 3.30424 1.99724 3.24691C2.11016 3.22022 2.20786 3.14978 2.26884 3.05106C2.32982 2.95235 2.34908 2.83345 2.3224 2.72053C2.29572 2.60761 2.22527 2.50992 2.12656 2.44894C2.02784 2.38796 1.90895 2.36869 1.79603 2.39537C1.39378 2.49051 1.02404 2.6908 0.724624 2.97575C0.42521 3.2607 0.206877 3.62009 0.0919667 4.01713C-0.0229433 4.41418 -0.0303044 4.83462 0.0706366 5.23544C0.171578 5.63627 0.377197 6.00308 0.666453 6.29834C0.955709 6.5936 1.31822 6.80671 1.71688 6.91586C2.11555 7.02501 2.53605 7.02629 2.93537 6.91956C3.33469 6.81283 3.69849 6.60193 3.98953 6.30843C4.28058 6.01493 4.48842 5.64938 4.59179 5.24918H5.00006C5.02915 5.24916 5.05758 5.25784 5.08169 5.27411C5.1058 5.29037 5.1245 5.31348 5.13538 5.34045L5.57281 6.43228C5.6053 6.51352 5.6614 6.58314 5.73387 6.63217C5.80633 6.68119 5.89184 6.70735 5.97933 6.70728H6.56257C6.67858 6.70728 6.78984 6.66119 6.87188 6.57916C6.95391 6.49713 7 6.38586 7 6.26985C7 6.15383 6.95391 6.04257 6.87188 5.96054C6.78984 5.8785 6.67858 5.83242 6.56257 5.83242Z" fill="#76C092"/>
</svg>
