<svg width="15" height="15" viewBox="0 0 15 15" fill="none" xmlns="http://www.w3.org/2000/svg">
<path d="M7.5 5C7.155 5 6.875 4.72 6.875 4.375V3.75C6.875 3.405 7.155 3.125 7.5 3.125H8.125C8.47 3.125 8.75 3.405 8.75 3.75V4.375C8.75 4.72 8.47 5 8.125 5H7.5ZM10.625 5H11.25C11.595 5 11.875 4.72 11.875 4.375V3.75C11.875 3.405 11.595 3.125 11.25 3.125H10.625C10.28 3.125 10 3.405 10 3.75V4.375C10 4.72 10.28 5 10.625 5ZM10 7.5C10 7.845 10.28 8.125 10.625 8.125H11.25C11.595 8.125 11.875 7.845 11.875 7.5V6.875C11.875 6.53 11.595 6.25 11.25 6.25H10.625C10.28 6.25 10 6.53 10 6.875V7.5ZM11.5625 0H7.1875C5.2925 0 3.75 1.5425 3.75 3.4375C3.75 3.955 4.17 4.375 4.6875 4.375C5.205 4.375 5.625 3.955 5.625 3.4375C5.625 2.57562 6.32562 1.875 7.1875 1.875H11.5625C12.4244 1.875 13.125 2.57562 13.125 3.4375V11.5625C13.125 12.4244 12.4244 13.125 11.5625 13.125H10.9375C10.42 13.125 10 13.545 10 14.0625C10 14.58 10.42 15 10.9375 15H11.5625C13.4575 15 15 13.4575 15 11.5625V3.4375C15 1.5425 13.4575 0 11.5625 0ZM9.375 9.9625V12.1875C9.375 13.7381 8.11312 15 6.5625 15H2.8125C1.26188 15 0 13.7381 0 12.1875V9.9625C0 9.00937 0.430625 8.12562 1.18187 7.53687L2.78937 6.27875C3.90625 5.405 5.46812 5.40437 6.58625 6.27875L8.1925 7.53562C8.94375 8.12438 9.375 9.00875 9.375 9.9625ZM7.5 9.9625C7.5 9.58937 7.33125 9.24375 7.0375 9.0125L5.43125 7.75563C5.21187 7.58438 4.94938 7.49875 4.68813 7.49875C4.42688 7.49875 4.16375 7.58437 3.94563 7.755L2.33812 9.01312C2.04437 9.24312 1.87625 9.58937 1.87625 9.9625V12.1875C1.87625 12.7044 2.29688 13.125 2.81375 13.125H6.56375C7.08063 13.125 7.50125 12.7044 7.50125 12.1875V9.9625H7.5ZM5 10H4.375C4.03 10 3.75 10.28 3.75 10.625V11.25C3.75 11.595 4.03 11.875 4.375 11.875H5C5.345 11.875 5.625 11.595 5.625 11.25V10.625C5.625 10.28 5.345 10 5 10Z" fill="#76C092"/>
</svg>
