<svg width="7" height="7" viewBox="0 0 7 7" fill="none" xmlns="http://www.w3.org/2000/svg">
<path d="M5.39583 1.75H1.60417C0.719833 1.75 0 2.46954 0 3.35417V5.39583C0 6.28046 0.719833 7 1.60417 7H5.39583C6.28017 7 7 6.28046 7 5.39583V3.35417C7 2.46954 6.28017 1.75 5.39583 1.75ZM6.125 5.39583C6.125 5.63383 6.01038 5.84558 5.83333 5.97888C5.83333 5.41538 5.37629 4.95833 4.8125 4.95833C4.24871 4.95833 3.79167 5.41538 3.79167 5.97917V6.125H3.20833V5.97917C3.20833 5.41538 2.75129 4.95833 2.1875 4.95833C1.62371 4.95833 1.16696 5.41508 1.16667 5.97888C0.989625 5.84558 0.875 5.63383 0.875 5.39583V3.35417C0.875 2.95225 1.20196 2.625 1.60417 2.625H5.39583C5.79804 2.625 6.125 2.95225 6.125 3.35417V5.39583ZM2.91667 3.9375C2.91667 4.34029 2.59029 4.66667 2.1875 4.66667C1.78471 4.66667 1.45833 4.34029 1.45833 3.9375C1.45833 3.53471 1.78471 3.20833 2.1875 3.20833C2.59029 3.20833 2.91667 3.53471 2.91667 3.9375ZM5.54167 3.9375C5.54167 4.34029 5.21529 4.66667 4.8125 4.66667C4.40971 4.66667 4.08333 4.34029 4.08333 3.9375C4.08333 3.53471 4.40971 3.20833 4.8125 3.20833C5.21529 3.20833 5.54167 3.53471 5.54167 3.9375ZM1.31308 0.780792L2.02767 0.0662083C2.11604 -0.021875 2.25896 -0.021875 2.34733 0.0662083L3.06221 0.781083C3.20454 0.923417 3.10363 1.16696 2.90238 1.16696H1.47292C1.27167 1.16696 1.17075 0.923417 1.31308 0.780792ZM3.93808 0.385583C3.79575 0.24325 3.89667 0 4.09792 0H5.52738C5.72863 0 5.82954 0.24325 5.68721 0.385583L4.97233 1.10046C4.88396 1.18883 4.74104 1.18883 4.65267 1.10046L3.93808 0.385583Z" fill="#76C092"/>
</svg>
