<svg version="1.2" xmlns="http://www.w3.org/2000/svg" viewBox="0 0 19 19" width="19" height="19">
	<title>Group 591</title>
	<style>
		.s0 { fill: #76c092 } 
		.s1 { fill: #20315f } 
	</style>
	<path class="s0" d="m-122.4 5.4q-0.1-0.2-0.3-0.3-0.3-0.1-0.5-0.1-0.3 0-0.5 0.1-0.2 0.1-0.4 0.3l-5.5 5.7q-0.2 0.2-0.4 0.3-0.3 0.1-0.5 0.1-0.2 0-0.5-0.1-0.2-0.1-0.4-0.3l-5.5-5.7q-0.2-0.2-0.4-0.3-0.2-0.1-0.5-0.1-0.2 0-0.5 0.1-0.2 0.1-0.3 0.3c-0.3 0.2-0.4 0.5-0.4 0.9 0 0.3 0.1 0.6 0.4 0.8l5.5 5.8c0.7 0.7 1.6 1.1 2.6 1.1 1 0 1.9-0.4 2.6-1.1l5.5-5.8c0.3-0.2 0.4-0.5 0.4-0.8 0-0.4-0.1-0.7-0.4-0.9z"/>
	<path class="s1" d="m13.6 17h-8.2c-1.9 0-3.4-1.5-3.4-3.4v-8.2c0-1.9 1.5-3.4 3.4-3.4h8.2c1.9 0 3.4 1.5 3.4 3.4v8.2c0 1.9-1.5 3.4-3.4 3.4zm-8.2-13.1c-0.8 0-1.5 0.7-1.5 1.5v8.2c0 0.8 0.7 1.5 1.5 1.5h8.2c0.8 0 1.5-0.7 1.5-1.5v-8.2c0-0.8-0.7-1.5-1.5-1.5z"/>
	<path class="s1" d="m8 13.1c-0.4 0-0.7-0.1-1-0.4l-1.9-1.9c-0.3-0.4-0.3-0.9 0-1.3q0 0 0 0c0.4-0.4 1-0.4 1.4 0l1.5 1.6 4.6-4.5c0.3-0.4 0.9-0.4 1.3 0 0.3 0.3 0.3 0.9 0 1.3q0 0 0 0l-4.8 4.8c-0.3 0.3-0.7 0.4-1.1 0.4z"/>
</svg>