<svg width="14" height="11" viewBox="0 0 14 11" fill="none" xmlns="http://www.w3.org/2000/svg">
<path d="M13.5723 3.94421C12.6679 2.47125 10.6107 0 7 0C3.38934 0 1.3321 2.47125 0.427685 3.94421C0.148096 4.39642 0 4.91757 0 5.44923C0 5.98089 0.148096 6.50205 0.427685 6.95426C1.3321 8.42721 3.38934 10.8985 7 10.8985C10.6107 10.8985 12.6679 8.42721 13.5723 6.95426C13.8519 6.50205 14 5.98089 14 5.44923C14 4.91757 13.8519 4.39642 13.5723 3.94421ZM12.5781 6.34373C11.8014 7.60677 10.0433 9.73223 7 9.73223C3.95671 9.73223 2.19861 7.60677 1.4219 6.34373C1.25579 6.07494 1.16781 5.76521 1.16781 5.44923C1.16781 5.13326 1.25579 4.82352 1.4219 4.55473C2.19861 3.2917 3.95671 1.16623 7 1.16623C10.0433 1.16623 11.8014 3.28936 12.5781 4.55473C12.7442 4.82352 12.8322 5.13326 12.8322 5.44923C12.8322 5.76521 12.7442 6.07494 12.5781 6.34373Z" fill="#20315F"/>
<path d="M6.99957 2.53369C6.42292 2.53369 5.85922 2.70469 5.37976 3.02506C4.90029 3.34543 4.5266 3.80078 4.30592 4.33353C4.08525 4.86629 4.02751 5.45251 4.14001 6.01808C4.25251 6.58365 4.53019 7.10316 4.93794 7.51091C5.34569 7.91866 5.8652 8.19634 6.43077 8.30884C6.99634 8.42134 7.58257 8.3636 8.11532 8.14293C8.64807 7.92226 9.10343 7.54856 9.42379 7.06909C9.74416 6.58963 9.91516 6.02593 9.91516 5.44928C9.91423 4.6763 9.60676 3.93525 9.06018 3.38867C8.5136 2.84209 7.77255 2.53462 6.99957 2.53369ZM6.99957 7.19863C6.65358 7.19863 6.31536 7.09603 6.02768 6.90381C5.74 6.71159 5.51579 6.43838 5.38338 6.11873C5.25098 5.79907 5.21633 5.44734 5.28383 5.108C5.35133 4.76866 5.51794 4.45695 5.76259 4.2123C6.00724 3.96765 6.31895 3.80104 6.65829 3.73354C6.99763 3.66604 7.34937 3.70068 7.66902 3.83309C7.98867 3.96549 8.26188 4.18971 8.4541 4.47739C8.64633 4.76507 8.74892 5.10329 8.74892 5.44928C8.74892 5.91323 8.56462 6.35819 8.23655 6.68626C7.90848 7.01432 7.46353 7.19863 6.99957 7.19863Z" fill="#20315F"/>
</svg>
