<svg width="11" height="11" viewBox="0 0 11 11" fill="none" xmlns="http://www.w3.org/2000/svg">
<path d="M8.62263 4.58314C8.76425 4.58314 8.89808 4.5176 8.98471 4.40577C9.07133 4.29395 9.10158 4.1482 9.06675 4.01117C8.92421 3.4534 8.63363 2.94375 8.22662 2.53677L6.62933 0.939544C6.02342 0.333653 5.21767 0 4.36058 0H2.29121C1.02804 0 0 1.028 0 2.29157V8.70797C0 9.97154 1.02804 10.9995 2.29167 10.9995H3.66667C3.91967 10.9995 4.125 10.7942 4.125 10.5412C4.125 10.2882 3.91967 10.0829 3.66667 10.0829H2.29167C1.53358 10.0829 0.916667 9.46602 0.916667 8.70797V2.29157C0.916667 1.53352 1.53358 0.916628 2.29167 0.916628H4.36104C4.43575 0.916628 4.51 0.920295 4.58333 0.92717V3.2082C4.58333 3.96625 5.20025 4.58314 5.95833 4.58314H8.62263ZM5.5 3.2082V1.21866C5.67371 1.31857 5.8355 1.44231 5.98125 1.58806L7.57854 3.18528C7.72246 3.32919 7.84575 3.49144 7.94658 3.66651H5.95833C5.70579 3.66651 5.5 3.46073 5.5 3.2082ZM10.5976 5.44431C10.0778 4.92459 9.17217 4.92459 8.65287 5.44431L5.57883 8.51823C5.23279 8.86426 5.04167 9.32486 5.04167 9.8148V10.5417C5.04167 10.7947 5.247 11 5.5 11H6.22692C6.71688 11 7.17704 10.8089 7.52308 10.4629L10.5971 7.38894C10.857 7.12908 11 6.78397 11 6.4164C11 6.04883 10.857 5.70372 10.5976 5.44431ZM9.94904 6.74043L6.87454 9.81434C6.70175 9.98758 6.47167 10.0829 6.22646 10.0829H5.95787V9.81434C5.95787 9.5696 6.05321 9.33953 6.22646 9.16628L9.30096 6.09237C9.47375 5.91913 9.77579 5.91913 9.94904 6.09237C10.0357 6.17853 10.0833 6.29357 10.0833 6.4164C10.0833 6.53923 10.0357 6.65381 9.94904 6.74043Z" fill="#20315F"/>
</svg>
