<svg width="7" height="7" viewBox="0 0 7 7" fill="none" xmlns="http://www.w3.org/2000/svg">
<path d="M6.34812 1.694L4.431 0.299542C4.17446 0.113723 3.86796 0.00935561 3.55133 0H3.54433H3.53879H3.5315C3.51079 0 3.49038 0 3.46996 0H3.45946H3.45392H3.44925C3.13226 0.00912249 2.82539 0.113615 2.56871 0.299833L0.651875 1.694C0.450263 1.8412 0.286177 2.03384 0.17292 2.25631C0.0596623 2.47877 0.00042139 2.72479 0 2.97442C0.000615654 3.1902 0.0866089 3.39697 0.239193 3.54956C0.391777 3.70214 0.598548 3.78813 0.814333 3.78875H3.0625V6.55958C3.0625 6.67562 3.10859 6.7869 3.19064 6.86894C3.27269 6.95099 3.38397 6.99708 3.5 6.99708C3.61603 6.99708 3.72731 6.95099 3.80936 6.86894C3.89141 6.7869 3.9375 6.67562 3.9375 6.55958V3.78875H6.18567C6.40145 3.78813 6.60822 3.70214 6.76081 3.54956C6.91339 3.39697 6.99938 3.1902 7 2.97442C6.99958 2.72479 6.94034 2.47877 6.82708 2.25631C6.71382 2.03384 6.54974 1.8412 6.34812 1.694ZM4.26942 2.91375H2.73058V2.8665C2.73046 2.73336 2.76973 2.60316 2.84346 2.49229C2.84958 2.48296 2.85512 2.47392 2.86067 2.46458L3.5 1.32737L4.13933 2.46488C4.14488 2.47421 4.15042 2.48325 4.15654 2.49258C4.23027 2.60345 4.26954 2.73365 4.26942 2.86679V2.91375ZM1.16667 2.40158L2.39342 1.50908L2.10496 2.02242C1.9417 2.27364 1.85496 2.56689 1.85529 2.8665V2.91375H0.877625C0.886524 2.81271 0.916917 2.71475 0.966767 2.62641C1.01662 2.53808 1.08477 2.46143 1.16667 2.40158ZM5.14442 2.91375V2.8665C5.14475 2.56689 5.05801 2.27364 4.89475 2.02242L4.606 1.50908L5.83333 2.40158C5.91523 2.46143 5.98338 2.53808 6.03323 2.62641C6.08308 2.71475 6.11348 2.81271 6.12237 2.91375H5.14442Z" fill="#76C092"/>
<path d="M1.33904 5.24711H0.875V4.51794C0.875 4.40191 0.828906 4.29063 0.746859 4.20859C0.664812 4.12654 0.553532 4.08044 0.4375 4.08044C0.321468 4.08044 0.210188 4.12654 0.128141 4.20859C0.0460936 4.29063 0 4.40191 0 4.51794L0 6.55961C0 6.67564 0.0460936 6.78692 0.128141 6.86897C0.210188 6.95102 0.321468 6.99711 0.4375 6.99711C0.553532 6.99711 0.664812 6.95102 0.746859 6.86897C0.828906 6.78692 0.875 6.67564 0.875 6.55961V6.12211H1.33904C1.37066 6.12219 1.40095 6.13478 1.42331 6.15714C1.44566 6.17949 1.45826 6.20979 1.45833 6.2414V6.55961C1.45833 6.67564 1.50443 6.78692 1.58647 6.86897C1.66852 6.95102 1.7798 6.99711 1.89583 6.99711C2.01187 6.99711 2.12315 6.95102 2.20519 6.86897C2.28724 6.78692 2.33333 6.67564 2.33333 6.55961V6.2414C2.33302 5.9778 2.22817 5.72507 2.04177 5.53867C1.85537 5.35227 1.60265 5.24742 1.33904 5.24711Z" fill="#76C092"/>
<path d="M6.56283 4.08044C6.44679 4.08044 6.33551 4.12654 6.25347 4.20859C6.17142 4.29063 6.12533 4.40191 6.12533 4.51794V5.24711H5.66128C5.39768 5.24742 5.14495 5.35227 4.95855 5.53867C4.77216 5.72507 4.6673 5.9778 4.66699 6.2414V6.55961C4.66699 6.67564 4.71309 6.78692 4.79513 6.86897C4.87718 6.95102 4.98846 6.99711 5.10449 6.99711C5.22052 6.99711 5.3318 6.95102 5.41385 6.86897C5.4959 6.78692 5.54199 6.67564 5.54199 6.55961V6.2414C5.54207 6.20979 5.55466 6.17949 5.57702 6.15714C5.59937 6.13478 5.62967 6.12219 5.66128 6.12211H6.12533V6.55961C6.12533 6.67564 6.17142 6.78692 6.25347 6.86897C6.33551 6.95102 6.44679 6.99711 6.56283 6.99711C6.67886 6.99711 6.79014 6.95102 6.87218 6.86897C6.95423 6.78692 7.00033 6.67564 7.00033 6.55961V4.51794C7.00033 4.40191 6.95423 4.29063 6.87218 4.20859C6.79014 4.12654 6.67886 4.08044 6.56283 4.08044Z" fill="#76C092"/>
</svg>
