<svg width="7" height="7" viewBox="0 0 7 7" fill="none" xmlns="http://www.w3.org/2000/svg">
<path d="M6.5625 0H5.10417C4.54125 0 4.08333 0.457917 4.08333 1.02083V2.04167H0.875V0.4375C0.875 0.196 0.679292 0 0.4375 0C0.195708 0 0 0.196 0 0.4375V6.5625C0 6.804 0.195708 7 0.4375 7C0.679292 7 0.875 6.804 0.875 6.5625V6.41667H6.125V6.5625C6.125 6.804 6.32071 7 6.5625 7C6.80429 7 7 6.804 7 6.5625V0.4375C7 0.196 6.80429 0 6.5625 0ZM4.95833 1.02083C4.95833 0.940625 5.02367 0.875 5.10417 0.875H6.125V2.04167H4.95833V1.02083ZM0.875 4.52083C0.875 4.44062 0.940333 4.375 1.02083 4.375H1.89583C1.97633 4.375 2.04167 4.44062 2.04167 4.52083V5.54167H0.875V4.52083ZM4.08333 5.54167H2.91667V4.52083C2.91667 4.44062 2.982 4.375 3.0625 4.375H3.9375C4.018 4.375 4.08333 4.44062 4.08333 4.52083V5.54167ZM4.95833 5.54167V4.52083C4.95833 3.95792 4.50042 3.5 3.9375 3.5H3.0625C2.84579 3.5 2.64454 3.56796 2.47917 3.68375C2.31379 3.56796 2.11254 3.5 1.89583 3.5H1.02083C0.97125 3.5 0.922542 3.5035 0.875 3.5105V2.91667H6.125V5.54167H4.95833Z" fill="#76C092"/>
</svg>
