<svg width="10" height="10" viewBox="0 0 10 10" fill="none" xmlns="http://www.w3.org/2000/svg">
<path d="M7.83869 4.16649C7.96744 4.16649 8.08911 4.10691 8.16786 4.00525C8.24661 3.90359 8.27411 3.77109 8.24244 3.64651C8.11286 3.13945 7.84869 2.67614 7.47869 2.30615L6.02661 0.854131C5.47577 0.303321 4.74327 0 3.96411 0H2.08286C0.934523 0 -6.10352e-05 0.934544 -6.10352e-05 2.08325V7.91634C-6.10352e-05 9.06504 0.934522 9.99958 2.08327 9.99958H3.33327C3.56327 9.99958 3.74994 9.81292 3.74994 9.58293C3.74994 9.35294 3.56327 9.16629 3.33327 9.16629H2.08327C1.39411 9.16629 0.833272 8.60548 0.833272 7.91634V2.08325C0.833272 1.39411 1.39411 0.833299 2.08327 0.833299H3.96452C4.07923 0.833299 4.16661 0.93056 4.16661 1.04527V2.91655C4.16661 3.60568 4.72744 4.16649 5.41661 4.16649H7.83869ZM4.99994 2.91655V1.66099C4.99994 1.41493 5.26344 1.2697 5.43744 1.44369L6.88952 2.89571C7.06322 3.0694 6.9174 3.33319 6.67176 3.33319H5.41661C5.18702 3.33319 4.99994 3.14612 4.99994 2.91655ZM9.63411 4.94938C9.16161 4.4769 8.33827 4.4769 7.86619 4.94938L5.07161 7.74384C4.75702 8.05841 4.58327 8.47715 4.58327 8.92255V9.58335C4.58327 9.81334 4.76994 10 4.99994 10H5.66077C6.10619 10 6.52452 9.82626 6.83911 9.51169L9.63369 6.71722C9.86994 6.48098 9.99994 6.16724 9.99994 5.83309C9.99994 5.49894 9.86994 5.1852 9.63411 4.94938ZM9.04452 6.12766L6.24952 8.92213C6.09244 9.07962 5.88327 9.16629 5.66036 9.16629C5.52551 9.16629 5.41619 9.05697 5.41619 8.92213C5.41619 8.69964 5.50286 8.49048 5.66036 8.33299L8.45536 5.53852C8.61244 5.38103 8.88702 5.38103 9.04452 5.53852C9.12327 5.61685 9.16661 5.72143 9.16661 5.83309C9.16661 5.94475 9.12327 6.04891 9.04452 6.12766Z" fill="#20315F"/>
</svg>
