<svg width="15" height="15" viewBox="0 0 15 15" fill="none" xmlns="http://www.w3.org/2000/svg">
<path d="M15 0.9375C15 1.45563 14.58 1.875 14.0625 1.875H11.5625C11.3906 1.875 11.25 2.015 11.25 2.1875V4.0625C11.25 4.58063 10.83 5 10.3125 5H8.4375C8.26562 5 8.125 5.14 8.125 5.3125V7.1875C8.125 7.70563 7.70563 8.125 7.1875 8.125H5.3125C5.14 8.125 5 8.265 5 8.4375V10.3125C5 10.8306 4.58063 11.25 4.0625 11.25H2.1875C2.015 11.25 1.875 11.39 1.875 11.5625V14.0625C1.875 14.5806 1.45563 15 0.9375 15C0.419375 15 0 14.5806 0 14.0625V11.5625C0 10.3562 0.98125 9.375 2.1875 9.375H3.125V8.4375C3.125 7.23125 4.10625 6.25 5.3125 6.25H6.25V5.3125C6.25 4.10625 7.23125 3.125 8.4375 3.125H9.375V2.1875C9.375 0.98125 10.3562 0 11.5625 0H14.0625C14.58 0 15 0.419375 15 0.9375Z" fill="#76C092"/>
</svg>
