<svg width="7" height="9" viewBox="0 0 7 9" fill="none" xmlns="http://www.w3.org/2000/svg">
<path d="M3.2082 4.05545L2.95952 3.79671C2.86391 3.69732 2.73276 3.63996 2.59488 3.63723C2.457 3.63449 2.32368 3.68662 2.22421 3.78214C2.17494 3.82948 2.13549 3.88607 2.1081 3.94866C2.0807 4.01126 2.06591 4.07864 2.06456 4.14695C2.0632 4.21526 2.07532 4.28317 2.10021 4.3468C2.12511 4.41043 2.16229 4.46853 2.20964 4.51779L2.61163 4.93609C2.68648 5.01533 2.77638 5.07884 2.87608 5.12292C2.97578 5.16699 3.08326 5.19073 3.19225 5.19275H3.20508C3.42114 5.19213 3.62825 5.10639 3.78154 4.95412L5.15538 3.57993C5.25292 3.48236 5.30771 3.35006 5.30771 3.2121C5.30771 3.07414 5.25292 2.94184 5.15538 2.84427C5.10707 2.79593 5.0497 2.75757 4.98656 2.73141C4.92341 2.70524 4.85573 2.69177 4.78738 2.69177C4.71903 2.69177 4.65135 2.70524 4.58821 2.73141C4.52507 2.75757 4.4677 2.79593 4.41938 2.84427L3.2082 4.05545Z" fill="#76C092"/>
<path d="M3.5 8.32407C3.42724 8.32409 3.35528 8.30885 3.28877 8.27933C3.15316 8.22002 1.1096e-06 6.78721 1.1096e-06 4.16195V2.5134C-0.000431056 2.1129 0.125386 1.72244 0.359569 1.39754C0.593753 1.07263 0.924387 0.829805 1.30448 0.703571L3.33525 0.0265321C3.44223 -0.00884404 3.55777 -0.00884404 3.66475 0.0265321L5.69552 0.703571C6.07558 0.829851 6.40619 1.07269 6.64037 1.39758C6.87454 1.72248 7.00038 2.11291 7 2.5134V4.16195C7 7.15105 3.80071 8.25193 3.66475 8.29737C3.61164 8.31514 3.556 8.32416 3.5 8.32407ZM3.5 1.06845L1.63363 1.69069C1.46093 1.74821 1.31071 1.85863 1.20426 2.00629C1.09781 2.15395 1.04052 2.33137 1.04053 2.5134V4.16195C1.04053 5.80425 2.92077 6.92005 3.52671 7.23672C4.13611 6.98248 5.95947 6.06335 5.95947 4.16195V2.5134C5.95948 2.33137 5.9022 2.15395 5.79574 2.00629C5.68929 1.85863 5.53907 1.74821 5.36637 1.69069L3.5 1.06845Z" fill="#76C092"/>
</svg>
