<svg width="7" height="7" viewBox="0 0 7 7" fill="none" xmlns="http://www.w3.org/2000/svg">
<path d="M3.79167 1.45833H3.35417C2.63054 1.45833 2.04167 2.04721 2.04167 2.77083V5.10417C2.04167 5.34596 2.23767 5.54167 2.47917 5.54167C2.72067 5.54167 2.91667 5.34596 2.91667 5.10417V4.375H3.79167C4.59579 4.375 5.25 3.72079 5.25 2.91667C5.25 2.11254 4.59579 1.45833 3.79167 1.45833ZM3.79167 3.5H2.91667V2.77083C2.91667 2.52962 3.11296 2.33333 3.35417 2.33333H3.79167C4.11338 2.33333 4.375 2.59496 4.375 2.91667C4.375 3.23838 4.11338 3.5 3.79167 3.5ZM5.39583 0H1.60417C0.719833 0 0 0.719542 0 1.60417V5.39583C0 6.28046 0.719833 7 1.60417 7H5.39583C6.28017 7 7 6.28046 7 5.39583V1.60417C7 0.719542 6.28017 0 5.39583 0ZM6.125 5.39583C6.125 5.79775 5.79804 6.125 5.39583 6.125H1.60417C1.20196 6.125 0.875 5.79775 0.875 5.39583V1.60417C0.875 1.20225 1.20196 0.875 1.60417 0.875H5.39583C5.79804 0.875 6.125 1.20225 6.125 1.60417V5.39583Z" fill="#76C092"/>
</svg>
