<svg width="7" height="7" viewBox="0 0 7 7" fill="none" xmlns="http://www.w3.org/2000/svg">
<path d="M6.70833 4.40147V2.88947C6.87779 2.82909 7 2.66897 7 2.4788C7 2.28864 6.87779 2.12851 6.70833 2.06814V1.45797C6.70833 1.18526 6.60217 0.929177 6.40938 0.736094L5.97188 0.298594C5.57375 -0.0995313 4.92596 -0.0995313 4.52813 0.298594L4.09063 0.736094C3.89783 0.928885 3.79167 1.18526 3.79167 1.45797V2.0413H3.20833V1.45797C3.20833 1.18526 3.10217 0.929177 2.90938 0.736094L2.47188 0.298594C2.07375 -0.0995313 1.42596 -0.0995313 1.02813 0.298594L0.590625 0.736094C0.397833 0.928885 0.291667 1.18526 0.291667 1.45797V2.06814C0.122208 2.12851 0 2.28864 0 2.4788C0 2.66897 0.122208 2.82909 0.291667 2.88947V4.40147C0.122208 4.46184 0 4.62197 0 4.81214C0 5.0023 0.122208 5.16243 0.291667 5.2228V5.83297C0.291667 6.47639 0.814917 6.99964 1.45833 6.99964H2.04167C2.68508 6.99964 3.20833 6.47639 3.20833 5.83297V5.24964H3.79167V5.83297C3.79167 6.47639 4.31492 6.99964 4.95833 6.99964H5.54167C6.18508 6.99964 6.70833 6.47639 6.70833 5.83297V5.2228C6.87779 5.16243 7 5.0023 7 4.81214C7 4.62197 6.87779 4.46184 6.70833 4.40147ZM5.83333 4.37464H4.66667V2.9163H5.83333V4.37464ZM4.66667 1.45797C4.66667 1.41947 4.68213 1.38214 4.70925 1.35472L5.14675 0.917219C5.17533 0.888635 5.21267 0.874635 5.25 0.874635C5.28733 0.874635 5.32467 0.888927 5.35325 0.917219L5.79075 1.35472C5.81787 1.38184 5.83333 1.41947 5.83333 1.45797V2.0413H4.66667V1.45797ZM1.20925 1.35472L1.64675 0.917219C1.67533 0.888635 1.71267 0.874635 1.75 0.874635C1.78733 0.874635 1.82467 0.888927 1.85325 0.917219L2.29075 1.35472C2.31788 1.38184 2.33333 1.41947 2.33333 1.45797V2.0413H1.16667V1.45797C1.16667 1.41947 1.18212 1.38214 1.20925 1.35472ZM2.33333 2.9163V4.37464H1.16667V2.9163H2.33333ZM2.33333 5.83297C2.33333 5.99397 2.20238 6.12464 2.04167 6.12464H1.45833C1.29763 6.12464 1.16667 5.99397 1.16667 5.83297V5.24964H2.33333V5.83297ZM3.20833 4.37464V2.9163H3.79167V4.37464H3.20833ZM5.54167 6.12464H4.95833C4.79763 6.12464 4.66667 5.99397 4.66667 5.83297V5.24964H5.83333V5.83297C5.83333 5.99397 5.70237 6.12464 5.54167 6.12464Z" fill="#76C092"/>
</svg>
