<svg width="28" height="29" viewBox="0 0 28 29" fill="none" xmlns="http://www.w3.org/2000/svg">
<path d="M14.0001 28.8643C21.7321 28.8643 28 22.5963 28 14.8644C28 7.13245 21.7321 0.864256 14.0001 0.864256C6.26819 0.864256 -1.90735e-06 7.13245 -1.90735e-06 14.8644C0.00871468 22.5927 6.27152 28.8555 14.0001 28.8643ZM14.0001 2.26442C20.9589 2.26442 26.6001 7.90559 26.6001 14.8644C26.6001 21.8232 20.9589 27.4643 14.0001 27.4643C7.04133 27.4643 1.40017 21.8232 1.40017 14.8644C1.40811 7.90893 7.04467 2.27237 14.0001 2.26442Z" fill="#20315F"/>
<path d="M15.6396 20.2913C15.9308 20.5458 16.373 20.5161 16.6276 20.2251C16.8819 19.9339 16.8521 19.4917 16.5612 19.2372L11.5634 14.8644L16.5614 10.4914C16.8527 10.2368 16.8821 9.79465 16.6278 9.50369C16.3733 9.21248 15.9311 9.18275 15.6399 9.4373L10.04 14.3374C9.88796 14.4702 9.80081 14.6624 9.80081 14.8644C9.80081 15.0664 9.88796 15.2584 10.04 15.3915L15.6396 20.2913Z" fill="#20315F"/>
</svg>
