<svg width="151" height="31" viewBox="0 0 151 31" fill="none" xmlns="http://www.w3.org/2000/svg">
<path d="M3.19873 7.87525H0V0.493408H9.8438L21.6081 11.8631C21.3625 10.4842 21.4067 8.95827 21.4067 7.38407V0.493408H32.5309V7.87525H28.7866V12.7488C28.7866 16.1449 28.9355 17.9184 30.6084 19.8368C32.3819 21.8498 33.9078 22.5443 35.6289 22.643V30.0268C31.8404 30.0268 29.1328 28.8452 24.998 24.956L10.8705 11.5189V30.0268H3.19873V7.87525Z" fill="#20315F"/>
<path d="M38.0464 22.6428H41.6397V17.129C41.6417 6.44175 47.7956 0 58.0339 0C68.3206 0 74.4826 6.39948 74.4826 17.0304V30.0266H66.2532V16.9418C66.2532 10.9852 63.1531 7.49055 58.0339 7.49055C52.9148 7.49055 49.863 10.9852 49.863 16.9519V30.0367H38.0464V22.6428Z" fill="#20315F"/>
<path d="M83.3401 7.87525H75.9019V0.493408H83.3401C96.8275 0.493408 103.718 7.43238 103.718 21.0688V30.0268H95.4928V21.0688C95.4928 12.5033 91.2594 7.87525 83.3401 7.87525Z" fill="#20315F"/>
<path d="M108.044 7.87525H105.043V0.493408H116.265V16.2435H108.044V7.87525Z" fill="#20315F"/>
<path d="M138.218 7.87525H120.94V0.493408H150.475V7.87525H146.449V30.0188H138.218V7.87525Z" fill="#20315F"/>
<path d="M61.861 22.4114H54.2456V30.0267H61.861V22.4114Z" fill="#76C092"/>
<path d="M58.0523 12.5818C58.5525 12.5815 59.0479 12.6799 59.5101 12.8712C59.9723 13.0625 60.3923 13.343 60.746 13.6967C61.0997 14.0505 61.3803 14.4704 61.5716 14.9326C61.7629 15.3949 61.8612 15.8902 61.861 16.3905V20.1971H54.2456V16.3905C54.2453 15.8904 54.3436 15.3952 54.5348 14.9331C54.726 14.471 55.0063 14.0511 55.3598 13.6974C55.7133 13.3438 56.1331 13.0632 56.5951 12.8717C57.057 12.6803 57.5522 12.5818 58.0523 12.5818Z" fill="#76C092"/>
</svg>
