<svg width="28" height="29" viewBox="0 0 28 29" fill="none" xmlns="http://www.w3.org/2000/svg">
<path d="M13.9999 28.8643C6.26794 28.8643 0 22.5963 0 14.8644C0 7.13245 6.26794 0.864256 13.9999 0.864256C21.7318 0.864256 28 7.13245 28 14.8644C27.9913 22.5927 21.7285 28.8555 13.9999 28.8643ZM13.9999 2.26442C7.04108 2.26442 1.39991 7.90559 1.39991 14.8644C1.39991 21.8232 7.04108 27.4643 13.9999 27.4643C20.9587 27.4643 26.5998 21.8232 26.5998 14.8644C26.5919 7.90893 20.9553 2.27237 13.9999 2.26442Z" fill="#20315F"/>
<path d="M12.3604 20.2913C12.0692 20.5458 11.627 20.5161 11.3724 20.2251C11.1181 19.9339 11.1479 19.4917 11.4388 19.2372L16.4366 14.8644L11.4386 10.4914C11.1473 10.2368 11.1179 9.79465 11.3722 9.50369C11.6267 9.21248 12.0689 9.18275 12.3601 9.4373L17.96 14.3374C18.112 14.4702 18.1992 14.6624 18.1992 14.8644C18.1992 15.0664 18.112 15.2584 17.96 15.3915L12.3604 20.2913Z" fill="#20315F"/>
</svg>
