<svg width="20" height="20" viewBox="0 0 20 20" fill="none" xmlns="http://www.w3.org/2000/svg">
<path d="M9.58303 9.16701H2.08327C0.932471 9.16701 0 10.0995 0 11.2503V12.0836C0 13.0911 0.715811 13.9319 1.66661 14.1252V15.8335H1.24996C0.559149 15.8335 0 16.3934 0 17.0834C0 17.7734 0.559149 18.3334 1.24996 18.3334H1.66661V18.75C1.66661 19.44 2.22576 20 2.91658 20C3.60739 20 4.16654 19.44 4.16654 18.75V18.3334H7.49977V18.75C7.49977 19.44 8.05892 20 8.74973 20C9.44054 20 9.99969 19.44 9.99969 18.75V18.3334H10.4163C11.1072 18.3334 11.6663 17.7734 11.6663 17.0834C11.6663 16.3934 11.1072 15.8335 10.4163 15.8335H9.99969V14.1252C10.9505 13.9319 11.6663 13.0919 11.6663 12.0836V11.2503C11.6663 10.0995 10.7338 9.16701 9.58303 9.16701ZM4.16654 15.8335V14.1669H7.49977V15.8335H4.16654ZM19.9069 11.2486C19.4927 13.1077 17.7803 14.3318 15.8328 14.1477V18.7492C15.8328 19.4392 15.2737 19.9992 14.5829 19.9992C13.8921 19.9992 13.3329 19.4392 13.3329 18.7492V14.0494C13.3329 13.3702 13.6221 12.7202 14.1262 12.2669C14.6412 11.8028 15.337 11.5786 16.0353 11.6553C16.7361 11.7228 17.3303 11.3211 17.467 10.7045C17.5328 10.4095 17.5003 10.1295 17.3695 9.87115C17.207 9.55783 16.8128 8.79952 17.3603 7.64539C17.4545 7.44789 17.5003 7.2629 17.5003 7.08207C17.5003 6.67458 17.307 6.3046 16.9686 6.0696C16.2362 5.55795 15.8112 4.69965 15.8328 3.77634C15.837 3.60468 15.8037 3.43468 15.732 3.25636C15.592 2.91137 15.292 2.64054 14.9495 2.54805C14.7054 2.48138 14.4637 2.48138 14.2171 2.54805C13.8754 2.63971 13.5754 2.91137 13.4354 3.25636C13.3629 3.43468 13.3304 3.60468 13.3338 3.77467C13.3554 4.69965 12.9313 5.55795 12.1996 6.06877C11.9838 6.2196 11.8246 6.42709 11.738 6.66875C11.5063 7.31956 10.7897 7.65789 10.1405 7.42623C9.49054 7.19457 9.15138 6.47876 9.38304 5.82878C9.6447 5.0938 10.1239 4.46799 10.768 4.01883C10.8288 3.97633 10.8363 3.88467 10.8347 3.83301C10.8222 3.32219 10.918 2.8122 11.118 2.31889C11.5521 1.24559 12.4688 0.428112 13.5696 0.133121C14.2387 -0.0443736 14.9287 -0.0443736 15.5953 0.133121C16.6978 0.428112 17.6145 1.24559 18.0486 2.31889C18.2486 2.81304 18.3436 3.32219 18.3311 3.83467C18.3303 3.88467 18.3369 3.97633 18.3986 4.01967C19.4002 4.71798 19.9985 5.86378 19.9985 7.08207C19.9985 7.63455 19.8702 8.18537 19.6169 8.71869L19.6027 8.74952C19.9927 9.52366 20.0977 10.3878 19.9069 11.2469V11.2486Z" fill="#20315F"/>
</svg>
