<svg width="20" height="20" viewBox="0 0 20 20" fill="none" xmlns="http://www.w3.org/2000/svg">
<path d="M16.25 2.5H15.7908C15.5867 1.09 14.3817 0 12.9167 0H2.91667C1.30833 0 0 1.30833 0 2.91667V4.58333C0 6.19167 1.30833 7.5 2.91667 7.5H12.9167C14.3817 7.5 15.5867 6.41 15.7908 5H16.25C16.9392 5 17.5 5.56083 17.5 6.25V7.91667C17.5 8.60583 16.9392 9.16667 16.25 9.16667H10.4167C8.34917 9.16667 6.66667 10.8492 6.66667 12.9167V13.3417C6.16417 13.7217 5.83333 14.32 5.83333 15V17.9167C5.83333 19.0675 6.76583 20 7.91667 20C9.0675 20 10 19.0675 10 17.9167V15C10 14.32 9.66917 13.7225 9.16583 13.3417V12.9167C9.16667 12.2275 9.7275 11.6667 10.4167 11.6667H16.25C18.3175 11.6667 20 9.98417 20 7.91667V6.25C20 4.1825 18.3175 2.5 16.25 2.5ZM13.3333 4.58333C13.3333 4.8125 13.1467 5 12.9167 5H2.91667C2.68667 5 2.5 4.8125 2.5 4.58333V2.91667C2.5 2.6875 2.68667 2.5 2.91667 2.5H12.9167C13.1467 2.5 13.3333 2.6875 13.3333 2.91667V4.58333Z" fill="#20315F"/>
</svg>
