<svg width="17" height="20" viewBox="0 0 17 20" fill="none" xmlns="http://www.w3.org/2000/svg">
<path d="M7.7093 9.744L7.11178 9.12232C6.88207 8.88353 6.56695 8.7457 6.23568 8.73914C5.9044 8.73258 5.58407 8.85781 5.34508 9.08732C5.22672 9.20107 5.13192 9.33703 5.0661 9.48742C5.00029 9.63782 4.96474 9.7997 4.96149 9.96384C4.95824 10.128 4.98735 10.2911 5.04716 10.444C5.10697 10.5969 5.19631 10.7365 5.31008 10.8549L6.27593 11.8599C6.45577 12.0503 6.67178 12.2029 6.91132 12.3088C7.15085 12.4147 7.40911 12.4717 7.67096 12.4766H7.7018C8.22091 12.4751 8.71853 12.2691 9.08682 11.9032L12.3877 8.60147C12.6221 8.36706 12.7537 8.04917 12.7537 7.71771C12.7537 7.38624 12.6221 7.06835 12.3877 6.83394C12.2716 6.71778 12.1338 6.62563 11.9821 6.56276C11.8304 6.49989 11.6678 6.46753 11.5035 6.46753C11.3393 6.46753 11.1767 6.49989 11.025 6.56276C10.8733 6.62563 10.7354 6.71778 10.6194 6.83394L7.7093 9.744Z" fill="#20315F"/>
<path d="M8.40934 20C8.23452 20 8.06162 19.9634 7.90183 19.8925C7.57599 19.75 2.66601e-06 16.3074 2.66601e-06 9.99979V6.03887C-0.00103568 5.07659 0.301261 4.13846 0.863926 3.35782C1.42659 2.57718 2.221 1.99375 3.13423 1.69045L8.0135 0.0637479C8.27055 -0.0212493 8.54814 -0.0212493 8.80519 0.0637479L13.6845 1.69045C14.5976 1.99386 15.392 2.57732 15.9546 3.35793C16.5173 4.13855 16.8196 5.07662 16.8187 6.03887V9.99979C16.8187 17.1816 9.13186 19.8267 8.80519 19.9358C8.67759 19.9785 8.5439 20.0002 8.40934 20ZM8.40934 2.56713L3.92508 4.06216C3.51013 4.20037 3.1492 4.46566 2.89343 4.82045C2.63766 5.17523 2.50004 5.60151 2.50005 6.03887V9.99979C2.50005 13.9457 7.01765 16.6266 8.47351 17.3874C9.93771 16.7766 14.3186 14.5682 14.3186 9.99979V6.03887C14.3187 5.60151 14.181 5.17523 13.9253 4.82045C13.6695 4.46566 13.3086 4.20037 12.8936 4.06216L8.40934 2.56713Z" fill="#20315F"/>
</svg>
