<svg width="20" height="20" viewBox="0 0 20 20" fill="none" xmlns="http://www.w3.org/2000/svg">
<path d="M19.2718 10.9867C18.7184 10.3599 17.9217 9.9999 17.0849 9.9999H2.50023V4.02685C2.50023 3.18427 3.1853 2.49921 4.02787 2.49921C4.50625 2.49921 4.96296 2.72756 5.25049 3.10926L5.70136 3.71099L5.39717 5.45615C5.34883 5.73451 5.40634 6.0212 5.55885 6.25872C5.91305 6.81044 6.66145 6.94545 7.18567 6.55208L10.1909 4.29854C10.6635 3.94434 10.7827 3.28428 10.4635 2.78673L10.4526 2.76923C10.2551 2.46087 9.91926 2.26752 9.55339 2.25085L7.66988 2.16668L7.36652 1.76247C6.64812 0.807383 5.08047 -0.0401958 3.88453 0.00147474C1.72933 0.0773151 0 1.85415 0 4.02685C0 4.02685 0.00583387 9.81572 0.00833411 11.1333C0.00833411 11.31 0.0200019 11.4817 0.0416705 11.6567C0.11001 12.2068 0.265025 13.4411 0.265025 13.4411C0.456709 14.9762 1.17511 16.3338 2.22437 17.3406L1.836 18.1165C1.53681 18.7149 1.69932 19.4825 2.27521 19.8233C2.47856 19.9433 2.69942 20 2.9161 20C3.37448 20 3.81619 19.7466 4.03537 19.3091L4.3379 18.704C5.08714 19.0032 5.90222 19.1666 6.75063 19.1666H13.4729C14.2513 19.1666 15.0022 19.0282 15.6998 18.7749L15.9665 19.3091C16.1857 19.7466 16.6274 20 17.0858 20C17.3024 20 17.5233 19.9433 17.7266 19.8233C18.3025 19.4825 18.465 18.7149 18.1659 18.1165L17.8483 17.4806C18.9793 16.4605 19.7577 15.0479 19.9585 13.4402L19.9785 13.2777C20.0827 12.4476 19.8243 11.6126 19.271 10.985L19.2718 10.9867ZM6.75063 16.6672C4.71877 16.6672 2.99694 15.1479 2.74525 13.1319L2.66608 12.5001H17.0849C17.2483 12.5001 17.3508 12.5876 17.3974 12.641C17.4441 12.6943 17.5191 12.806 17.4983 12.9693L17.4783 13.1327C17.3349 14.2836 16.7107 15.2729 15.824 15.9096C15.824 15.9096 15.0014 16.6672 13.4738 16.6672H6.75063Z" fill="#20315F"/>
</svg>
