<svg width="20" height="21" viewBox="0 0 20 21" fill="none" xmlns="http://www.w3.org/2000/svg">
<path d="M19.1657 13.3194V8.99922C19.6499 8.82671 19.9991 8.36919 19.9991 7.82582C19.9991 7.28246 19.6499 6.82494 19.1657 6.65243V4.90901C19.1657 4.1298 18.8624 3.39809 18.3115 2.8464L17.0614 1.59633C15.9239 0.458774 14.0729 0.458774 12.9362 1.59633L11.6862 2.8464C11.1353 3.39726 10.8319 4.1298 10.8319 4.90901V6.57576H9.16519V4.90901C9.16519 4.1298 8.86184 3.39809 8.31098 2.8464L7.06092 1.59633C5.92336 0.458774 4.07243 0.458774 2.9357 1.59633L1.68563 2.8464C1.13477 3.39726 0.831424 4.1298 0.831424 4.90901V6.65243C0.347232 6.82494 -0.00195312 7.28246 -0.00195312 7.82582C-0.00195312 8.36919 0.347232 8.82671 0.831424 8.99922V13.3194C0.347232 13.492 -0.00195312 13.9495 -0.00195312 14.4928C-0.00195312 15.0362 0.347232 15.4937 0.831424 15.6662V17.4097C0.831424 19.2481 2.3265 20.7432 4.16493 20.7432H5.83168C7.67011 20.7432 9.16519 19.2481 9.16519 17.4097V15.7429H10.8319V17.4097C10.8319 19.2481 12.327 20.7432 14.1655 20.7432H15.8322C17.6706 20.7432 19.1657 19.2481 19.1657 17.4097V15.6662C19.6499 15.4937 19.9991 15.0362 19.9991 14.4928C19.9991 13.9495 19.6499 13.492 19.1657 13.3194ZM16.6656 13.2428H13.3321V9.07589H16.6656V13.2428ZM13.3321 4.90901C13.3321 4.799 13.3762 4.69233 13.4537 4.61399L14.7038 3.36393C14.7855 3.28225 14.8922 3.24225 14.9988 3.24225C15.1055 3.24225 15.2122 3.28309 15.2938 3.36393L16.5439 4.61399C16.6214 4.69149 16.6656 4.799 16.6656 4.90901V6.57576H13.3321V4.90901ZM3.45323 4.61399L4.70329 3.36393C4.78496 3.28225 4.89163 3.24225 4.99831 3.24225C5.10498 3.24225 5.21165 3.28309 5.29332 3.36393L6.54339 4.61399C6.62089 4.69149 6.66506 4.799 6.66506 4.90901V6.57576H3.33155V4.90901C3.33155 4.799 3.37572 4.69233 3.45323 4.61399ZM6.66506 9.07589V13.2428H3.33155V9.07589H6.66506ZM6.66506 17.4097C6.66506 17.8697 6.29087 18.243 5.83168 18.243H4.16493C3.70574 18.243 3.33155 17.8697 3.33155 17.4097V15.7429H6.66506V17.4097ZM9.16519 13.2428V9.07589H10.8319V13.2428H9.16519ZM15.8322 18.243H14.1655C13.7063 18.243 13.3321 17.8697 13.3321 17.4097V15.7429H16.6656V17.4097C16.6656 17.8697 16.2914 18.243 15.8322 18.243Z" fill="#20315F"/>
</svg>
