<svg width="26" height="33" viewBox="0 0 26 33" fill="none" xmlns="http://www.w3.org/2000/svg">
<path d="M18.2322 0H8.50998C4.29748 0 0.871094 3.39213 0.871094 7.5625V25.4375C0.871094 29.6079 4.29748 33 8.50998 33H18.2322C22.4447 33 25.8711 29.6079 25.8711 25.4375V7.5625C25.8711 3.39213 22.4447 0 18.2322 0ZM21.7044 25.4375C21.7044 27.3323 20.1461 28.875 18.2322 28.875H17.5378V24.6318C18.3475 24.3485 18.9266 23.5854 18.9266 22.6875C18.9266 21.5476 17.9947 20.625 16.8433 20.625H9.89887C8.74748 20.625 7.81554 21.5476 7.81554 22.6875C7.81554 23.5854 8.3947 24.3485 9.20443 24.6318V28.875H8.50998C6.59609 28.875 5.03776 27.3323 5.03776 25.4375V7.5625C5.03776 5.66775 6.59609 4.125 8.50998 4.125H18.2322C20.1461 4.125 21.7044 5.66775 21.7044 7.5625V25.4375ZM11.9822 15.125V16.5C11.9822 17.259 11.36 17.875 10.5933 17.875H9.20443C8.43776 17.875 7.81554 17.259 7.81554 16.5V15.125C7.81554 14.366 8.43776 13.75 9.20443 13.75H10.5933C11.36 13.75 11.9822 14.366 11.9822 15.125ZM18.9266 15.125V16.5C18.9266 17.259 18.3044 17.875 17.5378 17.875H16.1489C15.3822 17.875 14.76 17.259 14.76 16.5V15.125C14.76 14.366 15.3822 13.75 16.1489 13.75H17.5378C18.3044 13.75 18.9266 14.366 18.9266 15.125ZM11.9822 8.25V9.625C11.9822 10.384 11.36 11 10.5933 11H9.20443C8.43776 11 7.81554 10.384 7.81554 9.625V8.25C7.81554 7.491 8.43776 6.875 9.20443 6.875H10.5933C11.36 6.875 11.9822 7.491 11.9822 8.25ZM18.9266 8.25V9.625C18.9266 10.384 18.3044 11 17.5378 11H16.1489C15.3822 11 14.76 10.384 14.76 9.625V8.25C14.76 7.491 15.3822 6.875 16.1489 6.875H17.5378C18.3044 6.875 18.9266 7.491 18.9266 8.25Z" fill="#20315F"/>
</svg>
