<svg width="19" height="19" viewBox="0 0 19 19" fill="none" xmlns="http://www.w3.org/2000/svg">
<path d="M9.36032 18.7187C4.19122 18.7188 0.000854492 14.5284 0.000854492 9.35929C0.000854492 4.19018 4.19122 -0.000350952 9.36032 -0.000350952C14.5294 -0.000350952 18.72 4.19018 18.72 9.35929C18.7141 14.526 14.5272 18.7129 9.36032 18.7187ZM9.36032 0.935715C4.70809 0.935715 0.93675 4.70706 0.93675 9.35929C0.93675 14.0115 4.70809 17.7829 9.36032 17.7829C14.0125 17.7829 17.7839 14.0115 17.7839 9.35929C17.7786 4.70929 14.0103 0.941029 9.36032 0.935715Z" fill="#76C092"/>
<path d="M8.26456 12.9873C8.06988 13.1575 7.77425 13.1376 7.60407 12.9431C7.43407 12.7484 7.45395 12.4528 7.64846 12.2826L10.9896 9.35925L7.64829 6.43571C7.4536 6.26553 7.4339 5.96991 7.6039 5.77539C7.77408 5.58071 8.06971 5.56083 8.26439 5.73101L12.0081 9.0069C12.1098 9.09567 12.168 9.2242 12.168 9.35925C12.168 9.4943 12.1098 9.62266 12.0081 9.7116L8.26456 12.9873Z" fill="#76C092"/>
</svg>
