<svg width="20" height="20" viewBox="0 0 20 20" fill="none" xmlns="http://www.w3.org/2000/svg">
<path d="M18.75 17.5H17.5V4.58333C17.5 2.05583 15.4433 0 12.9167 0H7.08333C4.55667 0 2.5 2.05583 2.5 4.58333V17.5H1.25C0.56 17.5 0 18.0592 0 18.75C0 19.4408 0.56 20 1.25 20H18.75C19.44 20 20 19.4408 20 18.75C20 18.0592 19.44 17.5 18.75 17.5ZM5 4.58333C5 3.435 5.93417 2.5 7.08333 2.5H12.9167C14.0658 2.5 15 3.435 15 4.58333V17.5H5V4.58333ZM13.3333 10.4167C13.3333 11.1067 12.7733 11.6667 12.0833 11.6667C11.3933 11.6667 10.8333 11.1067 10.8333 10.4167C10.8333 9.72667 11.3933 9.16667 12.0833 9.16667C12.7733 9.16667 13.3333 9.72667 13.3333 10.4167Z" fill="#20315F"/>
</svg>
