<svg width="33" height="33" viewBox="0 0 33 33" fill="none" xmlns="http://www.w3.org/2000/svg">
<path d="M26.8125 17.875H15.125V6.1875C15.125 2.77612 12.3489 0 8.9375 0H6.1875C2.77612 0 0 2.77612 0 6.1875V25.4375C0 29.6065 3.39212 33 7.5625 33H26.8125C30.2239 33 33 30.2239 33 26.8125V24.0625C33 20.6511 30.2239 17.875 26.8125 17.875ZM28.875 26.8125C28.875 27.9496 27.9496 28.875 26.8125 28.875H7.5625C5.66775 28.875 4.125 27.3336 4.125 25.4375V6.1875C4.125 5.05037 5.05037 4.125 6.1875 4.125H8.9375C10.0746 4.125 11 5.05037 11 6.1875V6.875H8.9375C7.79763 6.875 6.875 7.799 6.875 8.9375C6.875 10.076 7.79763 11 8.9375 11H11V13.75H8.9375C7.79763 13.75 6.875 14.674 6.875 15.8125C6.875 16.951 7.79763 17.875 8.9375 17.875H11V19.9375C11 21.076 11.9226 22 13.0625 22H15.125V24.0625C15.125 25.201 16.0476 26.125 17.1875 26.125C18.3274 26.125 19.25 25.201 19.25 24.0625V22H22V24.0625C22 25.201 22.924 26.125 24.0625 26.125C25.201 26.125 26.125 25.201 26.125 24.0625V22H26.8125C27.9496 22 28.875 22.9254 28.875 24.0625V26.8125Z" fill="#20315F"/>
</svg>
