<svg width="20" height="20" viewBox="0 0 20 20" fill="none" xmlns="http://www.w3.org/2000/svg">
<path d="M13.3333 2.08333C13.3333 0.933333 14.2667 0 15.4167 0C16.5667 0 17.5 0.933333 17.5 2.08333C17.5 3.23333 16.5667 4.16667 15.4167 4.16667C14.2667 4.16667 13.3333 3.23333 13.3333 2.08333ZM19.2583 15.6667C19 15.9667 18.6833 16.2083 18.3333 16.375V18.75C18.3333 19.4417 17.775 20 17.0833 20C16.3917 20 15.8333 19.4417 15.8333 18.75V16.6667H15V18.75C15 19.4417 14.4417 20 13.75 20C13.0583 20 12.5 19.4417 12.5 18.75V16.375C12.15 16.2083 11.8333 15.9667 11.575 15.6667C11.0167 15.0333 10.7667 14.1917 10.8833 13.35L11.5667 8.35833C11.8333 6.44167 13.4833 4.99167 15.425 4.99167C17.3667 4.99167 19.0167 6.44167 19.2833 8.35833L19.9667 13.35C20.0833 14.1833 19.825 15.025 19.275 15.6583L19.2583 15.6667ZM13.4583 14.025C13.5083 14.075 13.6083 14.1667 13.775 14.1667H17.0667C17.2333 14.1667 17.3333 14.075 17.3833 14.025C17.4333 13.975 17.5083 13.8583 17.4833 13.6917L16.8 8.7C16.7083 8.01667 16.1167 7.5 15.425 7.5C14.7333 7.5 14.1417 8.01667 14.05 8.7L13.3667 13.6917C13.3417 13.8583 13.4167 13.9667 13.4667 14.025H13.4583ZM4.58333 4.16667C5.73333 4.16667 6.66667 3.23333 6.66667 2.08333C6.66667 0.933333 5.73333 0 4.58333 0C3.43333 0 2.5 0.933333 2.5 2.08333C2.5 3.23333 3.43333 4.16667 4.58333 4.16667ZM9.16667 8.75V11.25C9.16667 12.55 8.50833 13.6917 7.5 14.3667V18.75C7.5 19.4417 6.94167 20 6.25 20C5.55833 20 5 19.4417 5 18.75V15H4.16667V18.75C4.16667 19.4417 3.60833 20 2.91667 20C2.225 20 1.66667 19.4417 1.66667 18.75V14.3667C0.658333 13.6917 0 12.55 0 11.25V8.75C0 6.68333 1.68333 5 3.75 5H5.41667C7.48333 5 9.16667 6.68333 9.16667 8.75ZM2.5 11.25C2.5 11.9417 3.05833 12.5 3.75 12.5H5.41667C6.10833 12.5 6.66667 11.9417 6.66667 11.25V8.75C6.66667 8.05833 6.10833 7.5 5.41667 7.5H3.75C3.05833 7.5 2.5 8.05833 2.5 8.75V11.25Z" fill="#20315F" fill-opacity="0.5"/>
</svg>
