<svg width="20" height="20" viewBox="0 0 20 20" fill="none" xmlns="http://www.w3.org/2000/svg">
<path d="M7.08279 2.50008C7.08279 2.00561 7.22942 1.52225 7.50413 1.11111C7.77885 0.699975 8.1693 0.379533 8.62613 0.190308C9.08296 0.00108326 9.58565 -0.0484267 10.0706 0.0480395C10.5556 0.144506 11.0011 0.382615 11.3507 0.732258C11.7003 1.0819 11.9384 1.52737 12.0349 2.01234C12.1314 2.49731 12.0819 2.99999 11.8926 3.45682C11.7034 3.91365 11.383 4.30411 10.9718 4.57882C10.5607 4.85353 10.0773 5.00016 9.58287 5.00016C8.91981 5.00016 8.28391 4.73676 7.81505 4.2679C7.34619 3.79905 7.08279 3.16314 7.08279 2.50008ZM18.7498 16.6672H17.9298L16.9998 14.3338C16.7847 13.7915 16.4113 13.3266 15.9282 12.9996C15.4451 12.6726 14.8747 12.4986 14.2914 12.5004H11.2496C11.1391 12.5004 11.0331 12.4565 10.955 12.3784C10.8768 12.3002 10.8329 12.1942 10.8329 12.0837V10.8337H14.583C14.9146 10.8337 15.2325 10.702 15.4669 10.4676C15.7014 10.2331 15.8331 9.91517 15.8331 9.58364C15.8331 9.25211 15.7014 8.93416 15.4669 8.69973C15.2325 8.4653 14.9146 8.3336 14.583 8.3336H10.8329V7.08356C10.8329 6.75203 10.7012 6.43408 10.4668 6.19965C10.2324 5.96522 9.9144 5.83352 9.58287 5.83352C9.25134 5.83352 8.93339 5.96522 8.69896 6.19965C8.46453 6.43408 8.33283 6.75203 8.33283 7.08356V12.0837C8.33536 12.7266 8.55022 13.3507 8.94402 13.8589C9.33782 14.367 9.88848 14.7309 10.5104 14.8938C10.2415 15.5544 9.80714 16.1348 9.24916 16.5791C8.69117 17.0234 8.02829 17.3167 7.32422 17.4308C6.62015 17.5449 5.89856 17.476 5.2288 17.2307C4.55904 16.9854 3.96363 16.572 3.49979 16.0302C3.03595 15.4883 2.71927 14.8363 2.5802 14.1367C2.44112 13.4371 2.48433 12.7136 2.70565 12.0355C2.92698 11.3575 3.31899 10.7477 3.844 10.2649C4.36902 9.78212 5.0094 9.44248 5.70358 9.27863C6.02627 9.20238 6.30546 9.00106 6.47971 8.71897C6.65397 8.43687 6.70903 8.09711 6.63278 7.77442C6.55653 7.45173 6.35521 7.17254 6.07311 6.99828C5.79102 6.82403 5.45126 6.76897 5.12856 6.84522C3.97909 7.11707 2.92247 7.68944 2.06684 8.50375C1.21121 9.31806 0.587282 10.3451 0.258905 11.4797C-0.069471 12.6143 -0.0905067 13.8158 0.197951 14.9612C0.486408 16.1067 1.074 17.1549 1.9006 17.9986C2.72721 18.8424 3.76314 19.4514 4.9024 19.7633C6.04165 20.0753 7.24333 20.0789 8.38446 19.7739C9.52559 19.4689 10.5652 18.8662 11.3969 18.0275C12.2286 17.1888 12.8226 16.1441 13.118 15.0005H14.2847C14.3678 15.0004 14.449 15.0252 14.5179 15.0717C14.5869 15.1182 14.6403 15.1842 14.6714 15.2613L15.9214 18.3814C16.0143 18.6136 16.1746 18.8125 16.3817 18.9526C16.5888 19.0927 16.8331 19.1675 17.0831 19.1673H18.7498C19.0814 19.1673 19.3993 19.0356 19.6337 18.8012C19.8682 18.5667 19.9999 18.2488 19.9999 17.9172C19.9999 17.5857 19.8682 17.2678 19.6337 17.0333C19.3993 16.7989 19.0814 16.6672 18.7498 16.6672Z" fill="#20315F"/>
</svg>
