<svg width="20" height="20" viewBox="0 0 20 20" fill="none" xmlns="http://www.w3.org/2000/svg">
<path d="M19.1677 12.5763V8.25605C19.6519 8.08355 20.001 7.62602 20.001 7.08266C20.001 6.5393 19.6519 6.08178 19.1677 5.90927V4.16584C19.1677 3.38663 18.8643 2.65493 18.3135 2.10323L17.0634 0.853169C15.9258 -0.28439 14.0749 -0.28439 12.9382 0.853169L11.6881 2.10323C11.1372 2.6541 10.8339 3.38663 10.8339 4.16584V5.8326H9.16714V4.16584C9.16714 3.38663 8.8638 2.65493 8.31293 2.10323L7.06287 0.853169C5.92531 -0.28439 4.07438 -0.28439 2.93765 0.853169L1.68759 2.10323C1.13673 2.6541 0.833377 3.38663 0.833377 4.16584V5.90927C0.349185 6.08178 0 6.5393 0 7.08266C0 7.62602 0.349185 8.08355 0.833377 8.25605V12.5763C0.349185 12.7488 0 13.2063 0 13.7497C0 14.293 0.349185 14.7506 0.833377 14.9231V16.6665C0.833377 18.5049 2.32845 20 4.16688 20H5.83364C7.67207 20 9.16714 18.5049 9.16714 16.6665V14.9997H10.8339V16.6665C10.8339 18.5049 12.329 20 14.1674 20H15.8342C17.6726 20 19.1677 18.5049 19.1677 16.6665V14.9231C19.6519 14.7506 20.001 14.293 20.001 13.7497C20.001 13.2063 19.6519 12.7488 19.1677 12.5763ZM16.6675 12.4996H13.334V8.33273H16.6675V12.4996ZM13.334 4.16584C13.334 4.05584 13.3782 3.94916 13.4557 3.87083L14.7058 2.62076C14.7874 2.53909 14.8941 2.49909 15.0008 2.49909C15.1075 2.49909 15.2141 2.53992 15.2958 2.62076L16.5459 3.87083C16.6234 3.94833 16.6675 4.05584 16.6675 4.16584V5.8326H13.334V4.16584ZM3.45518 3.87083L4.70525 2.62076C4.78692 2.53909 4.89359 2.49909 5.00026 2.49909C5.10693 2.49909 5.2136 2.53992 5.29528 2.62076L6.54534 3.87083C6.62284 3.94833 6.66701 4.05584 6.66701 4.16584V5.8326H3.33351V4.16584C3.33351 4.05584 3.37768 3.94916 3.45518 3.87083ZM6.66701 8.33273V12.4996H3.33351V8.33273H6.66701ZM6.66701 16.6665C6.66701 17.1265 6.29283 17.4999 5.83364 17.4999H4.16688C3.70769 17.4999 3.33351 17.1265 3.33351 16.6665V14.9997H6.66701V16.6665ZM9.16714 12.4996V8.33273H10.8339V12.4996H9.16714ZM15.8342 17.4999H14.1674C13.7082 17.4999 13.334 17.1265 13.334 16.6665V14.9997H16.6675V16.6665C16.6675 17.1265 16.2933 17.4999 15.8342 17.4999Z" fill="#20315F"/>
</svg>
