<svg width="1031" height="591" viewBox="0 0 1031 591" fill="none" xmlns="http://www.w3.org/2000/svg">
<path d="M514.935 4.49815e-05C830.9 7.26041e-05 1031 210.607 1031 531.1L1031 917.735L779.767 917.735L779.767 527.962C779.767 348.919 677.44 228.572 515.181 228.572C354.214 228.572 251.887 348.919 251.887 527.962L251.887 917.611L0.40617 917.611L0.406203 534.115C0.406231 212.145 200.508 1.74934e-05 514.935 4.49815e-05Z" fill="#76C092"/>
<path d="M515.734 384.543C546.593 384.543 576.189 396.801 598.01 418.62C619.831 440.44 632.09 470.033 632.09 500.89L632.09 617.237L399.316 617.237L399.316 500.952C399.308 485.662 402.313 470.521 408.161 456.394C414.009 442.267 422.584 429.431 433.396 418.62C444.208 407.809 457.045 399.235 471.173 393.387C485.301 387.54 500.443 384.535 515.734 384.543Z" fill="#20315F"/>
</svg>
