<svg width="412" height="536" viewBox="0 0 412 536" fill="none" xmlns="http://www.w3.org/2000/svg">
<path d="M206.254 2.62713e-05C390.792 4.24041e-05 507.66 123.004 507.66 310.187L507.66 536L360.929 536L360.929 308.354C360.929 203.785 301.165 133.497 206.398 133.497C112.386 133.497 52.622 203.785 52.622 308.354L52.6219 535.928L-94.2544 535.928L-94.2544 311.948C-94.2544 123.902 22.6143 1.0217e-05 206.254 2.62713e-05Z" fill="#76C092"/>
<path d="M274.678 400.06L138.727 400.06L138.727 536L274.678 536L274.678 400.06Z" fill="#20315F"/>
<path d="M206.721 224.591C224.744 224.591 242.029 231.75 254.774 244.494C267.518 257.237 274.678 274.521 274.678 292.543L274.678 360.495L138.727 360.495L138.727 292.579C138.722 283.649 140.478 274.806 143.893 266.555C147.308 258.305 152.317 250.808 158.631 244.494C164.946 238.179 172.443 233.172 180.695 229.757C188.946 226.341 197.79 224.586 206.721 224.591Z" fill="#20315F"/>
</svg>
