<svg width="7" height="7" viewBox="0 0 7 7" fill="none" xmlns="http://www.w3.org/2000/svg">
<path d="M5.39583 0H1.60417C0.719833 0 0 0.719542 0 1.60417V1.89583C0 2.61946 0.588875 3.20833 1.3125 3.20833H5.6875C6.41113 3.20833 7 2.61946 7 1.89583V1.60417C7 0.719542 6.28017 0 5.39583 0ZM6.125 1.89583C6.125 2.13704 5.92871 2.33333 5.6875 2.33333H5.51658C5.53262 2.28783 5.54167 2.23854 5.54167 2.1875C5.54167 1.94571 5.34567 1.75 5.10417 1.75H1.89583C1.65433 1.75 1.45833 1.94571 1.45833 2.1875C1.45833 2.23854 1.46708 2.28783 1.48342 2.33333H1.3125C1.07129 2.33333 0.875 2.13704 0.875 1.89583V1.60417C0.875 1.20225 1.20196 0.875 1.60417 0.875H5.39583C5.79804 0.875 6.125 1.20225 6.125 1.60417V1.89583ZM3.20833 4.22917V5.6875C3.20833 6.41113 2.61946 7 1.89583 7C1.17221 7 0.583333 6.41113 0.583333 5.6875C0.583333 5.27187 0.774083 4.86792 1.09404 4.60658C1.28071 4.45404 1.55692 4.48146 1.70946 4.66842C1.86229 4.85567 1.83488 5.131 1.64763 5.28413C1.53242 5.37804 1.45833 5.53642 1.45833 5.6875C1.45833 5.92871 1.65463 6.125 1.89583 6.125C2.13704 6.125 2.33333 5.92871 2.33333 5.6875V4.22917C2.33333 3.98738 2.52933 3.79167 2.77083 3.79167C3.01233 3.79167 3.20833 3.98738 3.20833 4.22917ZM6.41667 5.6875C6.41667 6.41113 5.82779 7 5.10417 7C4.38054 7 3.79167 6.41113 3.79167 5.6875V4.22917C3.79167 3.98738 3.98767 3.79167 4.22917 3.79167C4.47067 3.79167 4.66667 3.98738 4.66667 4.22917V5.6875C4.66667 5.92871 4.86296 6.125 5.10417 6.125C5.34538 6.125 5.54167 5.92871 5.54167 5.6875C5.54167 5.53642 5.46729 5.37804 5.35238 5.28413C5.16512 5.13129 5.13771 4.85567 5.29054 4.66842C5.44308 4.48117 5.71929 4.45375 5.90596 4.60658C6.22592 4.86792 6.41667 5.27187 6.41667 5.6875Z" fill="#76C092"/>
</svg>
