<svg width="8" height="8" viewBox="0 0 8 8" fill="none" xmlns="http://www.w3.org/2000/svg">
<path d="M5.9502 0H2.4502C1.48515 0 0.700195 0.822461 0.700195 1.83288V6.82229C0.700195 7.30284 0.975741 7.7284 1.4021 7.90602C1.82815 8.08398 2.30733 7.97301 2.62329 7.62343L4.1862 5.89119L5.78124 7.64076C5.9941 7.87403 6.29097 8 6.59101 8C6.72942 8 6.86879 7.97301 7.00083 7.91769C7.4256 7.73907 7.7002 7.31384 7.7002 6.83496V1.83288C7.7002 0.822461 6.91524 0 5.9502 0ZM6.74565 6.83496C6.74565 6.90461 6.70715 6.96426 6.64606 6.98992C6.58688 7.01358 6.51529 6.99792 6.4717 6.95026L4.52951 4.82013C4.43947 4.72149 4.31474 4.6655 4.18429 4.6655H4.18301C4.05224 4.6655 3.9272 4.72249 3.83747 4.82213L1.92997 6.93627C1.88383 6.98725 1.81733 7.00258 1.75497 6.97726C1.69324 6.9516 1.65474 6.89194 1.65474 6.82229V1.83288C1.65474 1.37332 2.01174 0.99975 2.4502 0.99975H5.9502C6.38865 0.99975 6.74565 1.37332 6.74565 1.83288V6.83496ZM5.4602 2.48038C5.49074 2.56802 5.4656 2.66633 5.39751 2.72665L4.89574 3.15488L5.1032 3.81705C5.13151 3.90669 5.10288 4.00533 5.03129 4.06298C4.9597 4.12064 4.86138 4.12464 4.78597 4.07331L4.20179 3.67475L3.62747 4.07731C3.59183 4.10231 3.55047 4.11497 3.50942 4.11497C3.46456 4.11497 3.4197 4.09998 3.38215 4.07065C3.30992 4.014 3.28001 3.91602 3.30706 3.82604L3.50656 3.15588L3.00224 2.72599C2.93447 2.66567 2.90965 2.56736 2.94051 2.48005C2.97106 2.39274 3.0506 2.33442 3.1397 2.33442H3.77638L4.00165 1.67225C4.03251 1.58527 4.11174 1.52762 4.20051 1.52762C4.28929 1.52762 4.36851 1.58527 4.39938 1.67225L4.62465 2.33442H5.26133C5.35042 2.33442 5.42997 2.39274 5.46051 2.48038H5.4602Z" fill="#20315F"/>
</svg>
