<svg width="15" height="15" viewBox="0 0 15 15" fill="none" xmlns="http://www.w3.org/2000/svg">
<path d="M12.1875 8.125H6.875V2.8125C6.875 1.26188 5.61313 0 4.0625 0H2.8125C1.26188 0 0 1.26188 0 2.8125V11.5625C0 13.4575 1.54187 15 3.4375 15H12.1875C13.7381 15 15 13.7381 15 12.1875V10.9375C15 9.38688 13.7381 8.125 12.1875 8.125ZM13.125 12.1875C13.125 12.7044 12.7044 13.125 12.1875 13.125H3.4375C2.57625 13.125 1.875 12.4244 1.875 11.5625V2.8125C1.875 2.29562 2.29562 1.875 2.8125 1.875H4.0625C4.57938 1.875 5 2.29562 5 2.8125V3.125H4.0625C3.54438 3.125 3.125 3.545 3.125 4.0625C3.125 4.58 3.54438 5 4.0625 5H5V6.25H4.0625C3.54438 6.25 3.125 6.67 3.125 7.1875C3.125 7.705 3.54438 8.125 4.0625 8.125H5V9.0625C5 9.58 5.41938 10 5.9375 10H6.875V10.9375C6.875 11.455 7.29438 11.875 7.8125 11.875C8.33063 11.875 8.75 11.455 8.75 10.9375V10H10V10.9375C10 11.455 10.42 11.875 10.9375 11.875C11.455 11.875 11.875 11.455 11.875 10.9375V10H12.1875C12.7044 10 13.125 10.4206 13.125 10.9375V12.1875Z" fill="#76C092"/>
</svg>
