<svg width="18" height="18" viewBox="0 0 18 18" fill="none" xmlns="http://www.w3.org/2000/svg">
<path d="M3.3375 8.15833H4.82083C6.66017 8.15833 8.15833 6.66017 8.15833 4.82083V3.3375C8.15833 1.49817 6.66017 0 4.82083 0H3.3375C1.49817 0 0 1.49817 0 3.3375V4.82083C0 6.66017 1.49817 8.15833 3.3375 8.15833ZM2.225 3.3375C2.225 2.72192 2.72192 2.225 3.3375 2.225H4.82083C5.43642 2.225 5.93333 2.72192 5.93333 3.3375V4.82083C5.93333 5.43642 5.43642 5.93333 4.82083 5.93333H3.3375C2.72192 5.93333 2.225 5.43642 2.225 4.82083V3.3375ZM14.4625 9.64167H12.9792C11.1398 9.64167 9.64167 11.1398 9.64167 12.9792V14.4625C9.64167 16.3018 11.1398 17.8 12.9792 17.8H14.4625C16.3018 17.8 17.8 16.3018 17.8 14.4625V12.9792C17.8 11.1398 16.3018 9.64167 14.4625 9.64167ZM15.575 14.4625C15.575 15.0781 15.0781 15.575 14.4625 15.575H12.9792C12.3636 15.575 11.8667 15.0781 11.8667 14.4625V12.9792C11.8667 12.3636 12.3636 11.8667 12.9792 11.8667H14.4625C15.0781 11.8667 15.575 12.3636 15.575 12.9792V14.4625ZM7.94325 13.9359C8.2325 14.2252 8.2325 14.6924 7.94325 14.9817L5.71825 17.3253C5.251 17.7926 4.45 17.4588 4.45 16.7987V15.5676H3.3375C1.49817 15.5676 0 14.0694 0 12.2301V10.7467C0 10.1312 0.496917 9.63425 1.1125 9.63425C1.72808 9.63425 2.225 10.1312 2.225 10.7467V12.2301C2.225 12.8457 2.72192 13.3426 3.3375 13.3426H4.45V12.1114C4.45 11.4513 5.251 11.1176 5.71825 11.5848L7.94325 13.9285V13.9359ZM17.8 5.5625V7.04583C17.8 7.66142 17.3031 8.15833 16.6875 8.15833C16.0719 8.15833 15.575 7.66142 15.575 7.04583V5.5625C15.575 4.94692 15.0781 4.45 14.4625 4.45H13.35V5.68117C13.35 6.34125 12.549 6.675 12.0817 6.20775L9.85675 3.86408C9.5675 3.57483 9.5675 3.10758 9.85675 2.81833L12.0817 0.474667C12.549 0.00741666 13.35 0.341167 13.35 1.00125V2.23242H14.4625C16.3018 2.23242 17.8 3.73058 17.8 5.56992V5.5625Z" fill="#20315F"/>
</svg>
