<svg width="14" height="19" viewBox="0 0 14 19" fill="none" xmlns="http://www.w3.org/2000/svg">
<path d="M10.3887 0.870523C8.80613 0.0025813 6.94194 -0.227106 5.19001 0.229989C3.43809 0.687084 1.93579 1.79513 1.00075 3.31995C0.065708 4.84477 -0.228813 6.66683 0.179401 8.40099C0.587615 10.1352 1.66653 11.6455 3.1882 12.6128L1.76263 16.4754L1.58161 16.9667C1.44023 17.3403 1.45519 17.7536 1.62325 18.1164C1.79132 18.4792 2.09886 18.7618 2.47856 18.9026C2.65035 18.9672 2.83276 19.0002 3.01671 19C3.33021 18.9995 3.63617 18.9051 3.89368 18.7296C4.1512 18.554 4.34806 18.3056 4.4581 18.0173L4.64373 17.5106L6.05992 13.665C7.67604 13.8844 9.31941 13.5413 10.7048 12.6953C12.0902 11.8492 13.1302 10.5536 13.6443 9.0333C14.1584 7.51297 14.114 5.8639 13.5191 4.37228C12.9241 2.88066 11.8161 1.64062 10.3872 0.86743L10.3887 0.870523ZM10.65 8.25426C10.3324 9.08096 9.73276 9.77397 8.95316 10.2152C8.17357 10.6565 7.26223 10.8188 6.37448 10.6743C5.48673 10.5298 4.67748 10.0876 4.08454 9.42303C3.49159 8.75842 3.15173 7.91253 3.12274 7.02943C3.09374 6.14634 3.37738 5.2807 3.92549 4.57997C4.4736 3.87924 5.25218 3.38676 6.12861 3.18646C7.00504 2.98616 7.92511 3.09042 8.73203 3.48147C9.53896 3.87252 10.1829 4.52617 10.5541 5.33106C10.7665 5.78804 10.8843 6.28191 10.9007 6.78399C10.9172 7.28606 10.832 7.78634 10.65 8.25581V8.25426Z" fill="#20315F"/>
</svg>
